<svg id="Capa_1" enable-background="new 0 0 512 512" height="512" viewBox="0 0 512 512" width="512" xmlns="http://www.w3.org/2000/svg"><g><g><path d="m431.27 451.849h-394.885c-2.761 0-5-2.239-5-5v-18.269c0-82.843 67.157-150 150-150h104.885c82.843 0 150 67.157 150 150v18.269c0 2.762-2.238 5-5 5z" fill="#5766cb"/></g><g><path d="m286.176 278.58h-104.697c-4.983 0-9.908.249-14.766.723 75.963 7.419 135.328 71.459 135.328 149.371v18.171c0 2.763-2.24 5.003-5.003 5.003h134.23c2.763 0 5.003-2.24 5.003-5.003v-18.171c-.001-82.894-67.2-150.094-150.095-150.094z" fill="#3d4fc3"/></g><g><path d="m322.803 145.448c-9.739 20.679-10.577 48.172 1.649 53.93s32.887-12.4 42.626-33.079 3.446-33.03-8.78-38.788-25.756-2.742-35.495 17.937z" fill="#ffcbbe"/></g><g><path d="m245.048 339.512h-22.441c-30.625 0-55.451-24.826-55.451-55.451v-103.498h133.343v103.498c0 30.625-24.826 55.451-55.451 55.451z" fill="#eaac9d"/></g><g><path d="m260.557 180.563v103.463c0 27.653-20.232 50.575-46.7 54.787 2.862.456 5.795.699 8.786.699h22.371c30.644 0 55.486-24.842 55.486-55.486v-103.463z" fill="#df9380"/></g><g><path d="m295.285 7.504c-8.458 0-16.183 3.129-22.085 8.292-4.97 4.348-12.318 4.348-17.288 0-5.902-5.163-13.627-8.292-22.085-8.292-8.458 0-16.183 3.129-22.085 8.292-4.97 4.348-12.318 4.348-17.288 0-5.902-5.163-13.627-8.292-22.085-8.292-18.544 0-33.577 15.033-33.577 33.577v80.083h190.07v-80.082c.001-18.545-15.032-33.578-33.577-33.578z" fill="#d8aa8b"/></g><g><g><path d="m295.285 7.504c-7.527 0-14.469 2.482-20.067 6.666 8.191 6.123 13.494 15.898 13.494 26.911v80.083h40.15v-80.082c.001-18.545-15.032-33.578-33.577-33.578z" fill="#c6865c"/></g></g><g><path d="m311.602 94.053h-155.549c-9.533 0-17.261 7.728-17.261 17.261v61.449c0 33.445 16.649 64.695 44.406 83.352l27.619 18.564c13.915 9.353 32.106 9.353 46.021 0l27.619-18.564c27.757-18.657 44.406-49.907 44.406-83.352v-61.449c0-9.533-7.728-17.261-17.261-17.261z" fill="#ffcbbe"/></g><g><path d="m300.61 94.053v78.709c0 33.445-16.649 64.695-44.406 83.352l-27.619 18.564c-2.809 1.888-5.797 3.375-8.884 4.501 12.206 4.451 26.031 2.964 37.137-4.501l27.619-18.564c27.757-18.657 44.406-49.907 44.406-83.352v-61.449c0-9.533-7.728-17.261-17.261-17.261h-10.992z" fill="#eaac9d"/></g><g><path d="m144.851 145.448c9.739 20.679 10.577 48.172-1.649 53.93s-32.887-12.4-42.626-33.079-3.446-33.03 8.78-38.788 25.756-2.742 35.495 17.937z" fill="#ffcbbe"/></g><g><g><circle cx="403.715" cy="427.595" fill="#ffd064" r="76.9"/></g><g><path d="m443.041 361.512c6.863 11.508 10.817 24.953 10.817 39.326 0 42.471-34.429 76.9-76.9 76.9-14.373 0-27.817-3.954-39.326-10.817 13.418 22.498 37.985 37.575 66.083 37.575 42.471 0 76.9-34.429 76.9-76.9.001-28.099-15.076-52.667-37.574-66.084z" fill="#ffc250"/></g></g><g><path d="m322.803 145.448c-9.739 20.679-10.577 48.172 1.649 53.93s32.887-12.4 42.626-33.079 3.446-33.03-8.78-38.788-25.756-2.742-35.495 17.937z" fill="#eaac9d"/></g><g><path d="m83.834 444.345h-44.945v-15.67c0-70.876 51.541-130.405 120.879-140.946 1.925 33.015 29.384 59.288 62.874 59.288h22.371c33.484 0 60.94-26.265 62.872-59.272 20.122 3.09 39.573 10.538 56.591 21.743 1.271.836 2.703 1.237 4.12 1.237 2.44 0 4.833-1.188 6.275-3.379 2.279-3.462 1.32-8.115-2.142-10.395-19.424-12.788-41.711-21.168-64.725-24.373v-26.885c10.037-10.938 17.679-23.797 22.485-37.764 16.242-.725 34.371-19.306 43.379-38.432 10.366-22.01 5.741-40.243-12.372-48.775-8.672-4.084-17.367-4.293-25.128-.872v-78.768c-.001-22.652-18.43-41.082-41.083-41.082-9.948 0-19.546 3.604-27.025 10.147-2.146 1.878-5.261 1.878-7.407 0-7.481-6.543-17.079-10.147-27.026-10.147s-19.545 3.604-27.027 10.147c-2.144 1.88-5.259 1.878-7.405 0-7.481-6.543-17.079-10.147-27.025-10.147-22.653 0-41.082 18.43-41.082 41.082v78.77c-7.761-3.421-16.457-3.212-25.127.871-18.113 8.531-22.739 26.765-12.373 48.775 9.001 19.112 27.255 37.648 43.376 38.424 4.806 13.97 12.449 26.831 22.488 37.771v26.893c-36.588 5.076-70.235 22.888-95.17 50.5-26.182 28.993-40.601 66.492-40.601 105.59v18.172c0 6.897 5.611 12.508 12.508 12.508h47.446c4.145 0 7.505-3.36 7.505-7.505-.002-4.146-3.361-7.506-7.506-7.506zm161.179-112.337h-22.371c-26.457 0-47.982-21.524-47.982-47.981v-24.782c2.121 1.758 29.018 19.62 31.97 21.662 8.261 5.552 17.729 8.328 27.197 8.328s18.936-2.776 27.197-8.328c3.083-2.131 29.738-19.827 31.97-21.661v24.781c0 26.457-21.524 47.981-47.981 47.981zm110.087-197.707c3.796 1.788 15.348 7.229 5.189 28.801-6.506 13.815-17.526 24.806-25.582 28.51 1.089-6.165 1.661-12.467 1.661-18.85v-34.68c5.519-5.994 11.475-7.198 18.732-3.781zm-182.73-119.292c6.312 0 12.399 2.286 17.144 6.436 7.745 6.773 19.424 6.775 27.169 0 4.745-4.15 10.834-6.436 17.145-6.436s12.399 2.286 17.144 6.436c7.745 6.774 19.426 6.773 27.171-.001 4.743-4.149 10.831-6.435 17.143-6.435 14.377 0 26.073 11.696 26.073 26.072v47.472c-2.996-1.289-6.293-2.006-9.756-2.006h-84.585c-4.145 0-7.505 3.36-7.505 7.505s3.36 7.505 7.505 7.505h84.585c5.379 0 9.756 4.377 9.756 9.756v61.449c0 30.999-15.36 59.831-41.087 77.124l-27.619 18.563c-11.437 7.685-26.214 7.685-37.649 0l-27.618-18.563c-25.728-17.293-41.088-46.125-41.088-77.124v-61.449c0-5.379 4.377-9.756 9.756-9.756h36.443c4.145 0 7.505-3.36 7.505-7.505s-3.36-7.505-7.505-7.505h-36.443c-3.463 0-6.76.717-9.756 2.006v-47.471c-.001-14.377 11.695-26.073 26.072-26.073zm-65.004 148.094c-10.159-21.572 1.393-27.013 5.189-28.801 7.257-3.419 13.212-2.215 18.732 3.781v34.68c0 6.402.575 12.722 1.67 18.904-8.069-3.676-19.094-14.77-25.591-28.564z"/><path d="m189.013 142.064c-6.345 0-11.489 5.144-11.489 11.489s5.144 11.489 11.489 11.489 11.489-5.144 11.489-11.489c.001-6.345-5.143-11.489-11.489-11.489z"/><path d="m278.642 165.042c6.345 0 11.489-5.144 11.489-11.489s-5.144-11.489-11.489-11.489-11.489 5.144-11.489 11.489c-.001 6.345 5.143 11.489 11.489 11.489z"/><path d="m200.921 211.746c7.47 10.831 19.771 17.298 32.906 17.298 13.136 0 25.438-6.467 32.907-17.298 2.353-3.412 1.495-8.085-1.917-10.438-3.412-2.356-8.087-1.494-10.438 1.917-4.668 6.769-12.351 10.81-20.552 10.81-8.2 0-15.883-4.041-20.551-10.81-2.353-3.412-7.027-4.271-10.438-1.917-3.412 2.352-4.27 7.025-1.917 10.438z"/><path d="m419.549 344.702c-5.414-8.581-11.676-16.68-18.647-24.08-2.842-3.018-7.592-3.156-10.608-.317-3.018 2.842-3.159 7.592-.317 10.608 3.689 3.917 7.153 8.055 10.381 12.363-44.989 1.771-81.048 38.904-81.048 84.319 0 5.734.58 11.334 1.675 16.75h-200.631c-4.145 0-7.505 3.36-7.505 7.505s3.36 7.505 7.505 7.505h205.181c12.574 30.842 42.871 52.645 78.181 52.645 46.541 0 84.405-37.864 84.405-84.405-.001-41.128-29.576-75.459-68.572-82.893zm-15.833 152.289c-38.264 0-69.395-31.131-69.395-69.395s31.131-69.395 69.395-69.395 69.395 31.131 69.395 69.395-31.131 69.395-69.395 69.395z"/><path d="m435.045 420.307h-23.825v-23.825c0-4.145-3.36-7.505-7.505-7.505s-7.505 3.36-7.505 7.505v23.825h-23.826c-4.145 0-7.505 3.36-7.505 7.505s3.36 7.505 7.505 7.505h23.826v23.826c0 4.145 3.36 7.505 7.505 7.505s7.505-3.36 7.505-7.505v-23.826h23.825c4.145 0 7.505-3.36 7.505-7.505 0-4.146-3.36-7.505-7.505-7.505z"/></g></g></svg>