<svg height="512" viewBox="0 0 60 60" width="512" xmlns="http://www.w3.org/2000/svg"><g id="045---Male-User-Remove" fill="none"><g id="Icons" transform="translate(1)"><path id="Shape" d="m41.85 59h-41.85v-3c.0000942-3.0097475 1.85798795-5.707075 4.67-6.78l9.75-3.72c1.5547763-.5879406 2.5825219-2.0777735 2.58-3.74v-2c.0143366-1.1351592-.4678006-2.2199679-1.32-2.97-2.474269-2.0693281-3.8362707-5.178245-3.68-8.4 0-.13 0-.27.01-.39h-1.02c-1.65685425 0-3-1.3431458-3-3v-3c-.00303029-1.2050478.71881172-2.2937276 1.83-2.76-2.6-7.783.686-17.213 9.05-18.16 5.176-.6 11.709 1.663 13.29 6.69.322.846-.071.51.64.78 3.942 1.55 4.853 6.356 3.83 10.45l-.22.35c.9857971.5158276 1.6025986 1.5374052 1.6 2.65v3c0 1.6568542-1.3431458 3-3 3h-1.02c.01.12.01.26.01.39.1562707 3.221755-1.205731 6.3306719-3.68 8.4-.8521994.7500321-1.3343366 1.8348408-1.32 2.97v2c-.0025219 1.6622265 1.0252237 3.1520594 2.58 3.74 3.465 1.326 1.92.683 6.83 2.86.092 1.783.016.4.44 7.95.1269006 1.5511022 1.4442921 2.7323633 3 2.69z" fill="#cad9fc"/><path id="Shape" d="m41.85 59h-41.85v-3c.0000942-3.0097475 1.85798795-5.707075 4.67-6.78l9.75-3.72c1.5547763-.5879406 2.5825219-2.0777735 2.58-3.74v-2c.0143366-1.1351592-.4678006-2.2199679-1.32-2.97-2.474269-2.0693281-3.8362707-5.178245-3.68-8.4 0-.13 0-.27.01-.39h-1.02c-1.65685425 0-3-1.3431458-3-3v-3c-.00303029-1.2050478.71881172-2.2937276 1.83-2.76-2.6-7.783.686-17.213 9.05-18.16 4.709.406 9.381 2.751 10.47 7.32 3.171.747 5.7 4.953 4.29 10.6l-.22.35c.9857971.5158276 1.6025986 1.5374052 1.6 2.65v3c0 1.6568542-1.3431458 3-3 3h-1.02c.01.12.01.26.01.39.1562707 3.221755-1.205731 6.3306719-3.68 8.4-.8521994.7500321-1.3343366 1.8348408-1.32 2.97v2c-.0025219 1.6622265 1.0252237 3.1520594 2.58 3.74 3.49 1.335 1.35.431 9.9 4.22l.37 6.59c.1269006 1.5511022 1.4442921 2.7323633 3 2.69z" fill="#e8edfc"/><path id="Shape" d="m41.846 59h10.308c1.5558433.0397253 2.8721811-1.1419072 3-2.693l.846-15.307h-18l.85 15.307c.1277417 1.549514 1.4416834 2.7305704 2.996 2.693z" fill="#cad9fc"/><path id="Shape" d="m41.205 59h8.595c1.4176755-.0883402 2.5171351-1.2726781 2.5-2.693l.7-15.307h-15l.709 15.307c-.0172518 1.4188699 1.0799063 2.6026226 2.496 2.693z" fill="#e8edfc"/><rect id="Rectangle-path" fill="#cad9fc" height="5" rx="2" width="22" x="36" y="36"/><rect id="Rectangle-path" fill="#e8edfc" height="5" rx="2" width="19" x="36" y="36"/></g><path id="Shape" d="m3 56c.0000942-3.0097475 1.85798795-5.707075 4.67-6.78l9.75-3.72c1.5547763-.5879406 2.5825219-2.0777735 2.58-3.74v-2c.0143366-1.1351592-.4678006-2.2199679-1.32-2.97-2.474269-2.0693281-3.8362707-5.178245-3.68-8.4 0-.13 0-.27.01-.39h-1.02c-1.6568542 0-3-1.3431458-3-3v-3c-.0030303-1.2050478.7188117-2.2937276 1.83-2.76-2.6-7.783.686-17.213 9.05-18.16.063-.007.129-.009.193-.016-1.0619405-.10684229-2.1321836-.10147934-3.193.016-8.364.947-11.645 10.377-9.05 18.16-1.11118828.4662724-1.83303029 1.5549522-1.83 2.76v3c0 1.6568542 1.34314575 3 3 3h1.02c-.01.12-.01.26-.01.39-.1562707 3.221755 1.205731 6.3306719 3.68 8.4.8521994.7500321 1.3343366 1.8348408 1.32 2.97v2c.0025219 1.6622265-1.0252237 3.1520594-2.58 3.74l-9.75 3.72c-2.81201205 1.072925-4.6699058 3.7702525-4.67 6.78v3h3z" fill="#fff" transform="translate(1)"/><g id="Layer_10" transform="translate(0 -1)"><path id="Shape" d="m11.2 6.525 1.7 1.064c-1.2837948 2.1395611-1.9420365 4.5961887-1.9 7.091h-2c-.0446779-2.8707.71758468-5.69626877 2.2-8.155z" fill="#fff"/><g fill="#428dff"><path id="Shape" d="m10.511 11.712c-.55228475 0-1-.4477153-1-1s.44771525-1 1-1c.5522847 0 1 .4477153 1 1s-.4477153 1-1 1z"/><path id="Shape" d="m57 36h-2.382l-1.171-2.342c-.5055177-1.018598-1.5458642-1.6614957-2.683-1.658h-5.528c-1.1372028-.0037331-2.1776646.6392359-2.683 1.658l-1.171 2.342h-2.382c-1.6568542 0-3 1.3431458-3 3v1c.005823 1.2834447.8274483 2.421018 2.044 2.83l.266 4.787-5.376-2.053c-1.1694724-.4358706-1.9420359-1.5559678-1.934-2.804v-2c-.0117361-.8381937.3398027-1.6404608.964-2.2 2.5488572-2.1120313 4.0242737-5.2498114 4.025-8.56 1.0644998.0055887 2.0873187-.4133702 2.8420123-1.1641223.7546935-.7507521 1.1790024-1.7713632 1.1789877-2.8358777v-3c.0025292-1.1482803-.4906411-2.2417842-1.353-3 1.039-4.542-.131-9.688-4.49-11.383-1.761-5.331-7.349-7.617-12.967-7.617-4.072907-.04468011-7.8699545 2.05318865-10 5.525-.1560765.22787608-.2067945.51179867-.1392657.77961808.0675287.26781941.2468029.49375111.4922657.62038192.4695524.24314646 1.0466546.09919222 1.347-.336 1.7624282-2.88777132 4.9171717-4.63200241 8.3-4.589 4.791 0 10.052 1.956 11.167 6.631.155.656.744.726 1.072.851 3.28 1.269 3.986 5.113 3.343 8.614-.2518203-.0671162-.5113902-.1007393-.772-.1-.5522847 0-1 .4477153-1 1s.4477153 1 1 1c1.1045695 0 2 .8954305 2 2v3c0 1.1045695-.8954305 2-2 2h-1.02c-.2798661-.0009197-.5473108.1154816-.7373604.3209252-.1900495.2054435-.2853104.4811269-.2626396.7600748.007.095.006.206.006.309.1629508 2.9288869-1.0711967 5.7618246-3.327 7.637-1.0787285.9396812-1.6891829 2.3065286-1.669 3.737v2c.005546 2.0747703 1.2866504 3.9324511 3.224 4.675l6.208 2.37c.469 8.442.329 8.161.921 9.2h-37.353v-2.005c.00896595-2.5921569 1.60745546-4.9132621 4.026-5.846l9.747-3.718c1.9388699-.7417091 3.2213894-2.6001104 3.227-4.676v-2c.0178372-1.4309013-.5952079-2.7970847-1.676-3.735-2.2541014-1.8753528-3.4870341-4.7073147-3.324-7.635.076052-.3761749-.0172058-.7667603-.255-1.068-.359-.389-.663-.322-1.755-.322-1.1045695 0-2-.8954305-2-2v-3c-.00267637-.5312489.2071778-1.0415133.5828323-1.4171677.3756544-.3756545.8859188-.5855087 1.4171677-.5828323.5522847 0 1-.4477153 1-1s-.4477153-1-1-1c-.1577803.0064958-.3150473.0221891-.471.047-.3520395-1.4287644-.5263577-2.8955227-.519-4.367 0-.5522847-.4477153-1-1-1-.55228475 0-1 .4477153-1 1-.01180302 1.7164265.1996363 3.4271017.629 5.089-1.03313941.7516053-1.64277548 1.9533955-1.639 3.231v3c-.00001467 1.0645145.42429417 2.0851256 1.17898773 2.8358777.75469355.7507521 1.77751247 1.169711 2.84201227 1.1641223.0022081 3.3072142 1.4762608 6.4418669 4.022 8.553.6271679.5606008.9800123 1.3659034.967 2.207v2c.0076998 1.2490718-.7661889 2.369752-1.937 2.805l-9.749 3.72c-3.19203956 1.2307466-5.301925 4.2939318-5.314 7.715v3c0 .5522847.44771525 1 1 1h52.153c2.0848148.037727 3.8369211-1.5577688 3.994-3.637l.808-14.533c1.2169466-.4086378 2.0390318-1.5462912 2.045-2.83v-1c0-1.6568542-1.3431458-3-3-3zm-12.658-1.447c.1681765-.3397203.514933-.5542129.894-.553h5.528c.3791342-.001451.7260065.2131132.894.553l.724 1.447h-8.764zm10.809 22.7c-.0983293 1.0204887-.9755333 1.7871651-2 1.748h-10.305c-1.0244667.0391651-1.9016707-.7275113-2-1.748l-.789-14.253h15.886zm2.849-17.253c0 .5522847-.4477153 1-1 1h-18c-.5522847 0-1-.4477153-1-1v-1c0-.5522847.4477153-1 1-1h18c.5522847 0 1 .4477153 1 1z"/><path id="Shape" d="m45 56c.28695.000206.5601617-.1228664.7501469-.3379151.1899852-.2150488.278435-.5013495.2428531-.7860849l-1-8c-.0800921-.5371264-.5742283-.9121552-1.1130995-.8447963-.5388713.0673589-.9254885.5524819-.8709005 1.0927963l1 8c.0624768.4999598.487152.8753539.991.876z"/><path id="Shape" d="m50.876 55.992c.5478221.068322 1.0473712-.3202162 1.116-.868l1-8c.054588-.5403144-.3320292-1.0254374-.8709005-1.0927963-.5388712-.0673589-1.0330074.3076699-1.1130995.8447963l-1 8c-.068322.5478221.3202162 1.0473712.868 1.116z"/></g></g></g></svg>