<?xml version="1.0" encoding="UTF-8"?>
<!DOCTYPE svg PUBLIC "-//W3C//DTD SVG 1.1//EN" "http://www.w3.org/Graphics/SVG/1.1/DTD/svg11.dtd">
<!-- Creator: CorelDRAW X7 -->
<svg xmlns="http://www.w3.org/2000/svg" xml:space="preserve" width="8.5in" height="11in" version="1.1" style="shape-rendering:geometricPrecision; text-rendering:geometricPrecision; image-rendering:optimizeQuality; fill-rule:evenodd; clip-rule:evenodd"
viewBox="0 0 8500 11000"
 xmlns:xlink="http://www.w3.org/1999/xlink">
 <defs>
  <style type="text/css">
   <![CDATA[
    .fil0 {fill:#ED3237}
    .fil1 {fill:#184284}
   ]]>
  </style>
 </defs>
 <g id="Layer_x0020_1">
  <metadata id="CorelCorpID_0Corel-Layer"/>
  <g id="_526850048">
   <g>
    <path class="fil0" d="M3106 5990l-8 16c2,12 -79,201 -77,250 -4,27 20,51 55,40 2,-1 179,-64 202,-69l46 -16 115 -101c5,-5 -229,-227 -229,-227 -4,0 -102,102 -104,107z"/>
    <path class="fil0" d="M3674 5399c1,5 3,8 1,15 -2,8 -293,304 -386,385 75,81 147,151 226,227 20,-32 308,-311 387,-387 14,-2 9,5 20,7 12,2 26,11 44,6 26,-8 28,-10 48,-29 82,-75 165,-162 242,-243 5,-6 8,-15 12,-20 8,-10 7,-45 3,-57 -1,-3 -12,-22 -17,-27 -36,-36 -196,-208 -222,-219 -16,-7 -1,-6 -17,-8 -6,-1 -6,-3 -17,-6 -22,-6 -27,3 -38,5 -14,3 -8,3 -16,8 -13,9 -14,11 -26,23 -80,79 -160,159 -239,240 -6,8 -3,6 -8,15 -5,8 -4,35 -3,46 0,17 4,10 6,19z"/>
   </g>
   <rect class="fil1" x="2723" y="6314" width="1557" height="318" rx="189" ry="159"/>
  </g>
 </g>
</svg>
