<?xml version="1.0" encoding="iso-8859-1"?>
<!-- Generator: Adobe Illustrator 19.0.0, SVG Export Plug-In . SVG Version: 6.00 Build 0)  -->
<svg version="1.1" id="Capa_1" xmlns="http://www.w3.org/2000/svg" xmlns:xlink="http://www.w3.org/1999/xlink" x="0px" y="0px"
	 viewBox="0 0 512.001 512.001" style="enable-background:new 0 0 512.001 512.001;" xml:space="preserve">
<path style="fill:#F6D83E;" d="M431.701,113.806H180.426l-5.074-20.939c-1.805-7.451-8.476-12.698-16.142-12.698H59.03
	c-7.666,0-14.336,5.247-16.142,12.698l-5.074,20.939H16.831C7.536,113.806,0,121.341,0,130.637v284.362
	c0,9.296,7.536,16.832,16.831,16.832H431.7c9.296,0,16.832-7.536,16.832-16.832V130.637
	C448.533,121.341,440.997,113.806,431.701,113.806z"/>
<path style="fill:#FFFFFF;" d="M413.083,412.421H37.042c-6.862,0-12.424-5.562-12.424-12.424V149.403
	c0-6.861,5.562-12.424,12.424-12.424h376.041c6.862,0,12.424,5.562,12.424,12.424v250.594
	C425.507,406.858,419.945,412.421,413.083,412.421z"/>
<path style="opacity:0.1;enable-background:new    ;" d="M448.533,143.872H63.443c-11.092,0-20.771,7.523-23.51,18.271L0,372.653
	v42.346c0,9.296,7.536,16.832,16.831,16.832H431.7c9.296,0,16.832-7.536,16.832-16.832V143.872H448.533z"/>
<path style="fill:#F6D83E;" d="M432.481,431.831H15.886c-8.619,0-14.929-8.12-12.802-16.472l59.309-232.814
	c2.738-10.749,12.418-18.271,23.51-18.271h413.578c8.164,0,14.141,7.691,12.126,15.602L451.11,417.353
	C448.939,425.87,441.27,431.831,432.481,431.831z"/>
<g>
	<path style="fill:#394049;" d="M172.554,289.122c-4.143,0-7.5-3.358-7.5-7.5v-10.304c0-4.142,3.357-7.5,7.5-7.5s7.5,3.358,7.5,7.5
		v10.304C180.054,285.764,176.696,289.122,172.554,289.122z"/>
	<path style="fill:#394049;" d="M359.459,289.122c-4.143,0-7.5-3.358-7.5-7.5v-10.304c0-4.142,3.357-7.5,7.5-7.5s7.5,3.358,7.5,7.5
		v10.304C366.959,285.764,363.602,289.122,359.459,289.122z"/>
	<path style="fill:#394049;" d="M266.006,311.885c-11.239,0-21.428-6.649-25.956-16.939c-1.668-3.792,0.053-8.217,3.845-9.886
		c3.79-1.667,8.217,0.053,9.886,3.844c2.133,4.848,6.932,7.98,12.226,7.98s10.093-3.132,12.227-7.979
		c1.668-3.791,6.091-5.513,9.886-3.844c3.791,1.668,5.512,6.095,3.843,9.886C287.434,305.237,277.245,311.885,266.006,311.885z"/>
</g>
<path style="opacity:0.05;enable-background:new    ;" d="M499.481,164.274H460.68c8.164,0,14.141,7.691,12.126,15.602
	l-60.497,237.477c-2.17,8.517-9.839,14.478-18.628,14.478h38.801c8.789,0,16.459-5.961,18.628-14.478l60.497-237.477
	C513.622,171.965,507.644,164.274,499.481,164.274z"/>
<path style="opacity:0.05;enable-background:new    ;" d="M12.093,379.997l-9.008,35.362c-2.128,8.352,4.183,16.472,12.802,16.472
	h416.594c8.789,0,16.459-5.961,18.628-14.478l9.516-37.356H12.093z"/>
<g>
</g>
<g>
</g>
<g>
</g>
<g>
</g>
<g>
</g>
<g>
</g>
<g>
</g>
<g>
</g>
<g>
</g>
<g>
</g>
<g>
</g>
<g>
</g>
<g>
</g>
<g>
</g>
<g>
</g>
</svg>
