<?xml version="1.0" encoding="iso-8859-1"?>
<!-- Generator: Adobe Illustrator 19.0.0, SVG Export Plug-In . SVG Version: 6.00 Build 0)  -->
<svg version="1.1" id="Layer_1" xmlns="http://www.w3.org/2000/svg" xmlns:xlink="http://www.w3.org/1999/xlink" x="0px" y="0px"
	 viewBox="0 0 512 512" style="enable-background:new 0 0 512 512;" xml:space="preserve">
<g>
	<g>
		<g>
			<path d="M106.667,160v192c0,17.646,14.354,32,32,32h234.667c17.646,0,32-14.354,32-32V181.333c0-17.646-14.354-32-32-32H260.417
				l-18.229-18.208c-2-2-4.719-3.125-7.542-3.125h-95.979C121.021,128,106.667,142.354,106.667,160z M248.458,167.542
				c2,2,4.719,3.125,7.542,3.125h117.333c5.885,0,10.667,4.781,10.667,10.667V352c0,5.885-4.781,10.667-10.667,10.667H138.667
				c-5.885,0-10.667-4.781-10.667-10.667V160c0-5.885,4.781-10.667,10.667-10.667h91.563L248.458,167.542z"/>
			<path d="M256,0c-4.531,0-8.563,2.865-10.063,7.135c-1.5,4.271-0.135,9.031,3.396,11.865l53.333,42.667
				c4.625,3.708,11.323,2.917,15-1.667c3.677-4.604,2.927-11.313-1.667-15l-26.635-21.302
				C403.01,39.948,490.667,137.927,490.667,256c0,105.677-71.323,198.74-173.448,226.302c-5.688,1.542-9.052,7.396-7.521,13.083
				c1.292,4.76,5.594,7.885,10.292,7.885c0.927,0,1.865-0.115,2.792-0.365C434.188,472.823,512,371.292,512,256
				C512,114.844,397.156,0,256,0z"/>
			<path d="M262.667,493l-53.333-42.667c-4.604-3.688-11.302-2.896-15,1.667c-3.677,4.604-2.927,11.313,1.667,15l26.635,21.302
				C108.99,472.052,21.333,374.073,21.333,256c0-105.677,71.323-198.74,173.448-226.302c5.688-1.542,9.052-7.396,7.521-13.083
				c-1.542-5.698-7.448-9.021-13.083-7.521C77.813,39.177,0,140.708,0,256c0,141.156,114.844,256,256,256
				c4.531,0,8.563-2.865,10.063-7.135C267.563,500.594,266.198,495.833,262.667,493z"/>
		</g>
	</g>
</g>
<g>
</g>
<g>
</g>
<g>
</g>
<g>
</g>
<g>
</g>
<g>
</g>
<g>
</g>
<g>
</g>
<g>
</g>
<g>
</g>
<g>
</g>
<g>
</g>
<g>
</g>
<g>
</g>
<g>
</g>
</svg>
