<?xml version="1.0" standalone="no"?>
<!DOCTYPE svg PUBLIC "-//W3C//DTD SVG 20010904//EN"
 "http://www.w3.org/TR/2001/REC-SVG-20010904/DTD/svg10.dtd">
<svg version="1.0" xmlns="http://www.w3.org/2000/svg"
 width="225.000000pt" height="225.000000pt" viewBox="0 0 225.000000 225.000000"
 preserveAspectRatio="xMidYMid meet">
<metadata>
Created by potrace 1.16, written by Peter Selinger 2001-2019
</metadata>
<g transform="translate(0.000000,225.000000) scale(0.100000,-0.100000)"
fill="#000000" stroke="none">
<path d="M1865 2010 c-44 -16 -159 -54 -255 -85 -293 -96 -417 -168 -499 -291
l-30 -46 -7 28 c-11 51 -65 124 -108 149 -55 32 -135 51 -296 70 -361 43 -480
49 -495 26 -2 -4 -32 -4 -66 0 -69 8 -85 5 -94 -19 -3 -9 -9 -337 -12 -728
l-6 -713 24 -10 c13 -5 78 -17 144 -26 156 -20 674 -102 745 -117 30 -6 68
-18 84 -26 44 -21 157 -13 194 15 18 14 124 47 273 88 134 36 327 89 429 116
102 28 221 63 265 78 l80 27 6 335 c11 608 10 1086 -3 1114 -13 30 -35 32
-126 9 -60 -15 -64 -15 -76 2 -8 10 -20 15 -29 11 -9 -3 -18 0 -21 9 -8 20
-29 17 -121 -16z m80 -77 c-3 -38 -10 -264 -15 -503 -5 -239 -13 -492 -16
-562 -6 -122 -7 -128 -28 -128 -34 0 -365 -86 -439 -114 -119 -45 -208 -98
-279 -166 l-68 -65 -2 445 c-5 746 -7 677 25 742 36 74 126 157 219 202 40 20
172 69 293 110 121 41 236 82 255 90 59 25 61 23 55 -51z m249 -83 c4 -77 5
-144 2 -149 -3 -4 -6 -195 -6 -422 0 -228 -3 -476 -7 -553 l-6 -138 -32 -14
c-18 -7 -128 -38 -246 -67 -245 -63 -490 -134 -503 -148 -5 -5 22 0 60 11 170
50 406 111 410 108 2 -3 -139 -44 -314 -92 -174 -48 -340 -99 -369 -112 -61
-28 -145 -32 -195 -9 -18 8 -141 31 -273 50 -490 71 -483 70 -440 75 36 5 32
6 -40 17 -141 21 -185 33 -186 51 -1 9 -5 4 -9 -13 -4 -17 -7 41 -7 135 l1
165 6 -130 6 -130 2 115 c2 63 7 364 12 669 5 304 11 556 14 559 3 3 9 2 13
-2 5 -4 7 -313 5 -687 l-3 -679 23 -10 c13 -5 117 -21 233 -35 116 -14 271
-37 345 -51 74 -14 162 -30 195 -36 33 -6 74 -20 90 -30 20 -12 50 -18 88 -18
60 0 87 9 122 40 11 10 97 39 190 65 557 153 729 211 740 245 5 17 16 392 32
1075 5 255 9 284 34 285 3 0 9 -63 13 -140z m-203 -85 c2 -67 2 -68 9 -25 5
30 6 16 3 -40 -2 -47 -8 -262 -13 -479 -5 -216 -12 -396 -15 -399 -3 -3 -5 55
-5 128 0 73 -2 131 -5 128 -3 -3 -9 -45 -14 -94 -7 -72 -8 -56 -4 86 2 96 8
267 14 380 5 112 10 263 10 335 1 96 3 120 10 90 4 -22 9 -71 10 -110z m-1366
45 c292 -35 353 -59 401 -156 25 -52 28 -69 35 -233 4 -97 8 -366 8 -598 l1
-423 -48 34 c-77 56 -146 86 -267 116 -126 32 -307 60 -389 60 -29 0 -68 3
-85 6 l-31 7 0 610 0 610 103 -7 c56 -3 179 -15 272 -26z m-395 -585 c0 -397
-3 -605 -10 -605 -6 0 -10 48 -10 124 0 142 -19 189 -22 54 -1 -82 -1 -82 -7
-23 -6 59 -6 60 -16 25 -8 -30 -10 -19 -13 70 -5 135 19 581 30 574 5 -3 8
-13 7 -22 -1 -10 0 -39 1 -67 5 -88 18 113 19 296 1 146 4 179 18 179 2 0 3
-272 3 -605z m1807 358 c-2 -126 -1 -214 3 -198 4 17 8 71 9 120 2 73 4 85 13
65 15 -37 24 -780 9 -780 -7 0 -11 20 -11 53 0 105 -13 248 -21 235 -5 -7 -10
-69 -11 -138 -1 -74 -4 -106 -7 -80 -4 35 -7 22 -12 -60 -3 -58 -4 59 -2 260
3 201 9 417 14 480 5 63 9 150 9 193 0 42 3 77 6 77 4 0 4 -102 1 -227z m-101
-892 c-3 -5 -25 -12 -48 -15 -65 -10 -84 -27 -23 -21 45 4 47 4 18 -5 -48 -15
-40 -21 20 -16 65 7 67 7 -257 -84 -148 -42 -253 -67 -258 -62 -6 6 16 20 54
35 35 14 56 26 48 26 -8 0 -49 -13 -90 -29 -91 -36 -108 -38 -55 -5 64 39 27
29 -54 -16 -40 -22 -75 -38 -77 -36 -7 7 80 64 151 99 77 39 186 76 312 108
94 23 121 25 78 5 -41 -19 -15 -17 85 4 104 23 102 23 96 12z m-1333 -130
c131 -24 258 -61 329 -97 67 -34 69 -48 3 -19 -64 29 -72 30 -56 11 10 -11 -2
-10 -51 5 -73 22 -96 23 -53 3 l30 -14 -40 5 -40 5 43 -16 c24 -9 42 -18 40
-19 -2 -2 -55 5 -118 16 -160 27 -349 49 -450 51 l-85 2 70 5 c61 5 66 7 36
14 -18 4 -44 7 -57 7 -13 0 -24 5 -24 11 0 6 8 8 18 5 31 -9 217 -19 210 -11
-4 4 -54 14 -110 21 l-103 13 122 -2 c67 -1 120 0 117 2 -2 2 -50 10 -106 17
l-103 13 130 -4 c72 -2 183 -13 248 -24z"/>
</g>
</svg>
