<?xml version="1.0" encoding="UTF-8"?>
<!DOCTYPE svg PUBLIC "-//W3C//DTD SVG 1.1//EN" "http://www.w3.org/Graphics/SVG/1.1/DTD/svg11.dtd">
<!-- Creator: CorelDRAW X7 -->
<svg xmlns="http://www.w3.org/2000/svg" xml:space="preserve" width="8.5in" height="11in" version="1.1" style="shape-rendering:geometricPrecision; text-rendering:geometricPrecision; image-rendering:optimizeQuality; fill-rule:evenodd; clip-rule:evenodd"
viewBox="0 0 8500 11000"
 xmlns:xlink="http://www.w3.org/1999/xlink">
 <defs>
  <style type="text/css">
   <![CDATA[
    .str1 {stroke:#ED3237;stroke-width:3}
    .str0 {stroke:#2BB454;stroke-width:3}
    .fil1 {fill:#ED3237}
    .fil0 {fill:#2BB454}
   ]]>
  </style>
 </defs>
 <g id="Layer_x0020_1">
  <metadata id="CorelCorpID_0Corel-Layer"/>
  <g id="_514492496">
   <path class="fil0 str0" d="M4240 1803l1 0 0 0 0 0 0 0 -1 0zm2 578c-11,-5 -6,-3 -14,-8 -3,-2 -4,-2 -6,-4 -3,-3 -4,-4 -6,-5 0,-1 -1,-2 -1,-3 -2,-2 -4,-4 -6,-6 -4,-6 -6,-12 -8,-18 -1,-3 -2,-6 -3,-11 -3,-18 -1,-38 -1,-55 0,-6 0,-12 0,-18l-4 -5c-2,-1 -1,-1 -3,-1 -2,0 -4,0 -6,0 -33,0 -59,-3 -91,-3 -37,-1 -69,-4 -106,-4l-8 1c-4,-3 -23,-1 -32,-2 -16,-2 -14,-1 -31,-2 -7,0 -60,-3 -61,-3 -15,0 -29,-1 -42,-2 -12,-2 -29,-1 -42,-1 -17,-1 -22,-2 -37,-4 -13,-1 -29,0 -41,-1 -19,-2 -41,-3 -61,-3 -7,0 -11,-2 -18,-2 -16,-1 -24,0 -38,-4 -6,-1 -14,0 -21,0 -8,-1 -10,-2 -17,-3 5,-2 51,-6 61,-6 15,0 13,-3 41,-3 17,0 9,-1 19,-3 12,-2 30,0 43,-1l42 -3c15,0 28,-1 41,-2 28,-2 58,-1 84,-4 14,-2 31,0 44,-1l42 -3c12,0 30,0 42,-1 32,-3 74,-4 107,-4 18,0 12,-1 20,-2 25,-2 60,-1 88,-1 3,0 4,1 6,0 2,5 -1,2 9,6 9,4 7,4 14,8 5,2 1,0 6,5l12 16c6,11 5,8 9,24l0 2 0 2c0,3 0,6 0,9l2 51c0,2 1,3 1,4 1,0 2,0 2,0 7,-3 22,-16 25,-19 15,-11 42,-31 54,-43 1,-2 0,0 3,-2 2,-1 4,-2 7,-4 0,0 1,-1 1,-1 0,-1 1,-1 2,-2 1,-1 2,-2 3,-2 6,-4 4,-4 6,-7l7 -5c4,-3 5,-4 8,-6l51 -38c0,-1 0,-1 0,-1 3,-1 8,-6 13,-9l0 0 12 -10c2,-2 4,-3 6,-4l8 -6c0,0 0,-1 0,-1 1,-1 2,-1 3,-2l11 -8c1,0 1,-1 2,-1l7 -6c5,-3 7,-6 12,-9l6 -4c1,-1 1,-2 2,-2l11 -8c1,-1 2,-1 2,-2 1,0 1,-1 2,-1 0,-1 1,-2 1,-3 1,0 2,0 3,0 1,-1 2,-2 3,-2 0,-1 2,-2 2,-2 2,-2 0,0 1,-2 2,0 2,0 3,0l10 -8c6,-4 13,-9 19,-14 3,-2 5,-5 6,-6 2,0 2,0 3,-2 2,0 3,-1 3,-1 3,-2 6,-4 9,-6 0,-1 0,-1 1,-2 1,0 0,2 1,-2l3 0c1,-1 2,-2 3,-3 0,0 0,0 0,0 1,-1 2,-2 3,-3 3,-2 5,-4 8,-6l37 -28c3,-2 7,-4 10,-7l1 0c3,-3 5,-3 5,-6 0,-3 -2,-4 -5,-6l-1 0c-3,-3 -7,-5 -10,-8l-37 -27c-3,-2 -5,-4 -8,-7 -1,-1 -2,-2 -3,-3 0,0 0,1 0,0 -1,-1 -2,-1 -3,-2l-3 -1c-1,-3 0,-1 -1,-1 -1,-2 -1,-2 -1,-2 -3,-2 -6,-4 -9,-6 0,-1 -1,-1 -3,-1 -1,-2 -1,-2 -3,-2 -1,-2 -3,-4 -6,-6 -6,-5 -13,-10 -19,-15l-10 -7c-1,0 -1,0 -3,0 -1,-2 1,0 -1,-2 0,-1 -2,-2 -2,-2 -1,-1 -2,-1 -3,-2 -1,0 -2,-1 -3,0 0,-2 -1,-3 -1,-3 -1,-1 -1,-1 -2,-2 0,0 -1,0 -2,-1l-11 -8c-1,-1 -1,-1 -2,-2l-6 -4c-5,-4 -7,-6 -12,-9l-7 -6c-1,-1 -1,-1 -2,-1l-11 -9c-1,0 -2,0 -3,-1 0,-1 0,-1 0,-1l-8 -6c-2,-1 -4,-3 -6,-4l-12 -10 0 0c-5,-3 -10,-8 -13,-9 0,0 0,-1 0,-1l-51 -39c-3,-1 -4,-2 -8,-5l-7 -5c-2,-4 0,-3 -6,-7 -1,-1 -2,-1 -3,-2 -1,-1 -2,-2 -2,-2 0,-1 -1,-1 -1,-1 -3,-2 -5,-3 -7,-4 -3,-2 -2,-1 -3,-2 -12,-12 -39,-32 -54,-43 -3,-3 -18,-16 -25,-19 0,0 -1,0 -2,0 0,1 -1,2 -1,4l-2 51c0,3 0,6 0,9l0 1 0 3 -1 0c-1,5 -6,13 -6,18 -2,1 0,-1 -2,2l-6 9c-3,4 -6,8 -11,11l0 0 -1 0c-1,2 0,1 -2,3 0,0 -1,0 -1,1 -2,2 0,-2 -2,2 -2,2 -11,6 -14,8 -3,1 -15,4 -19,4 -12,1 -34,1 -46,0 -27,-3 -59,-3 -89,-3 -14,-1 -29,-3 -43,-3 -15,0 -30,-1 -45,-1 -16,-1 -28,-2 -44,-3 -30,0 -57,-3 -89,-3 -7,0 -14,0 -21,-1 -15,-1 -4,1 -21,-2 -13,-2 -31,0 -45,-1 -15,-2 -27,-3 -43,-3l-7 -1c-6,0 -12,0 -15,0 1,-1 1,-1 1,-1l-65 -4c-14,-2 -30,-1 -44,-3 -8,-1 -11,-2 -20,-2 -6,0 -18,1 -22,-2 5,-2 13,-2 19,-2 16,-1 11,-2 19,-2l31 -2c6,0 5,-1 9,-1 8,-2 32,-2 41,-2 8,0 13,-1 20,-2l41 -2c9,0 11,-1 19,-2 14,-1 28,0 41,-2 21,-2 47,-1 69,-2 1,0 1,-1 1,-1 1,-1 54,-3 61,-4 17,0 15,1 31,-1 3,-1 8,-1 12,-1 6,0 11,0 16,0 2,0 3,-1 4,-1l8 0c18,1 34,0 51,-1 11,-1 22,-2 34,-2 7,0 14,0 21,0 22,0 41,-2 61,-3 13,-1 26,-1 35,0 1,0 1,0 1,0 2,-1 1,0 3,-1l4 -6c0,-5 0,-11 0,-17 0,-17 -2,-37 1,-56 1,-4 2,-7 3,-10 2,-7 4,-13 8,-18 2,-2 4,-5 6,-7 0,-1 1,-2 1,-3 2,0 3,-2 6,-4 2,-2 3,-3 6,-4 8,-5 3,-3 14,-8 7,-1 3,-2 8,-3 1,-1 1,-1 2,-2 3,1 7,1 13,1 8,-1 13,-2 27,0 4,1 9,4 13,6 2,1 3,1 6,2l7 6c1,0 1,1 2,1l14 9c1,1 2,3 4,4 6,4 8,7 10,7 0,1 1,1 2,2l16 12c7,5 6,4 11,7 4,3 5,4 9,7l44 32c0,0 2,2 2,2l7 4c4,2 5,3 9,6 0,0 2,2 2,2l2 2c4,4 4,1 13,9l27 19c3,3 5,4 8,6l52 38 0 0c1,1 2,1 3,2 2,1 4,3 6,4l22 18c2,1 4,2 6,4 9,7 61,45 63,46 1,2 4,5 7,7 4,3 8,5 11,6l0 -1c0,0 0,0 0,1l27 20c2,2 6,5 10,8 2,1 5,3 10,7l6 5c0,0 0,0 0,0l1 0 20 16c6,5 1,-1 9,12 4,7 9,14 11,23l1 1c0,1 0,2 0,3l0 1c1,7 2,4 3,11 0,1 0,2 0,5l0 1 0 0 0 1 0 0 0 2c0,2 0,4 0,5 -1,7 -2,4 -3,11 0,0 0,1 0,1 0,1 0,2 0,3l-1 0c-2,10 -7,17 -11,23 -8,13 -3,8 -9,13l-20 16 -1 0c0,0 0,0 0,0l-6 5c-5,4 -8,6 -10,7 -4,3 -8,6 -10,7l-27 21c0,0 0,1 0,1l0 -1c-3,1 -7,3 -11,6 -3,2 -6,5 -7,7 -2,0 -54,39 -63,46 -2,1 -4,2 -6,4l-22 18c-2,1 -4,3 -6,4 -1,1 -2,1 -3,2l0 0 -52 37c-3,3 -5,4 -8,7l-27 19c-9,7 -9,5 -13,9l-2 2c0,0 -2,1 -2,2 -4,2 -5,4 -9,6l-7 4c0,0 -2,2 -2,2l-44 32c-4,3 -5,4 -9,6 -5,4 -4,3 -11,8l-16 11c-1,1 -2,2 -2,3 -2,0 -4,3 -10,6 -2,2 -3,4 -4,5l-14 9c-1,0 -1,1 -2,1l-7 5c-3,2 -4,2 -6,3 -4,2 -9,5 -13,5 -14,2 -19,2 -27,1 -6,0 -10,0 -13,1 -1,-1 -1,-2 -2,-2 -5,-1 -1,-3 -8,-3zm-383 -612l-2 0 0 0 2 0z"/>
   <path class="fil1 str1" d="M3546 2546l2 -1c1,-2 0,0 1,-2 4,-8 4,-31 3,-39 0,-11 -2,-35 0,-46 3,0 3,-1 7,-1 17,-1 79,0 89,-2 2,0 4,0 5,-1 4,0 7,0 10,0l2 0c41,0 77,-3 116,-4 41,-1 75,-4 116,-4 9,0 10,0 17,-2 8,-2 43,0 58,-2 7,-1 11,-2 18,-3 34,0 62,-3 94,-4 8,0 12,1 18,-2 5,-1 12,-1 19,-1 8,0 31,0 36,-2l-5 -1c10,0 21,-1 32,-1 7,0 11,0 18,-2l2 -1c3,-1 4,-1 6,-3 -6,-4 -20,-3 -29,-3l-30 -3c-22,-1 -40,-3 -63,-4 -11,0 -20,-3 -30,-3 -31,0 -65,-4 -94,-4 -11,0 -20,-2 -31,-3 -10,-1 -22,-1 -32,-1 -22,0 -40,-3 -63,-3 -11,0 -22,0 -33,-1 -29,-1 -67,-6 -95,-3 -5,0 -13,-2 -18,-2l-64 -1c-6,0 -13,0 -19,-1l-61 -2c-5,0 -10,1 -14,2l-4 2c-7,0 -2,3 -11,4 -3,1 -3,2 -6,2 -8,-1 -5,2 -11,2 -2,1 -8,0 -12,0 -2,6 -2,2 -2,9l4 3c-5,2 -5,4 -7,9 -2,6 -2,7 -5,8l1 7 1 0 -1 4c-4,2 -3,12 -3,17 0,4 -1,56 -3,58 -3,1 -5,-1 -7,-4l-31 -24c0,0 0,0 0,-1l-1 -1c-2,-1 -2,-1 -4,-2l-43 -33c-6,-6 -3,-3 -9,-7l-26 -21c-13,-9 -23,-16 -37,-28 -4,-3 -6,-3 -14,-11 -4,-4 -10,-6 -15,-10 -5,-5 -8,-6 -12,-11l-29 -20c-1,0 -1,-1 -2,-1l0 0c-4,-6 -13,-12 -20,-17l-49 -38c-4,-2 -6,-5 -10,-7l-30 -23c-1,0 -1,-1 -3,-1l-1 -1c0,-1 0,-1 0,-1 -1,0 -1,0 -1,0 -5,-4 -2,-4 -10,-8 -12,-7 -9,-9 -15,-12l-15 -10c-2,-2 -3,-3 -4,-3 -1,-2 -1,-2 -3,-4 0,-1 -7,-3 -6,-7 1,-4 8,-3 11,-11 2,-1 3,-1 4,-2 2,-3 1,0 2,-5 5,1 10,-5 13,-7 9,-7 16,-11 27,-20 2,-1 2,-2 4,-3 10,-6 7,-6 17,-13l89 -67c1,-1 1,-1 2,-2l29 -20c4,-5 7,-5 12,-10 5,-5 11,-7 15,-11 8,-8 10,-7 14,-11 14,-12 24,-18 37,-28l26 -21c6,-4 3,-1 9,-7l43 -33c2,-1 2,-1 4,-2l1 -1c0,0 0,-1 0,-1l31 -24c2,-2 4,-5 7,-4 2,2 3,54 3,58 0,6 -1,15 3,17l1 5 -1 -1 10 17c11,17 18,14 22,21 3,0 3,1 6,3 9,0 4,4 11,3 1,0 1,0 2,0 2,0 4,1 6,1l4 0c3,1 7,1 11,1 6,0 13,0 19,-1 12,0 25,0 37,-1 5,1 11,0 16,0 0,0 0,0 0,0l6 0c15,0 29,-3 44,-3 15,0 31,0 46,0 4,0 8,0 12,-1 4,0 6,-1 10,-1 7,-1 15,0 23,-1 14,-1 31,-1 45,-1 9,-1 14,-2 21,-2l69 -2c9,0 12,-2 21,-2 8,0 16,0 24,-1 7,0 17,1 23,0l20 -3c14,0 32,0 45,-2 9,-1 36,-3 45,-1 1,-1 2,-1 7,-2l22 -2c28,-1 39,-3 61,-4 5,0 25,-3 27,-4 0,-1 0,-1 -1,-2l-2 0c-2,-1 -26,-1 -36,-2l-79 -6c-7,0 -15,0 -22,0 -6,-1 -11,-2 -18,-2 -9,-1 -55,-1 -62,-3 -17,-4 -48,0 -61,-3 -12,-3 -25,-3 -39,-3 -28,0 -53,-3 -82,-3 -14,-1 -29,0 -42,-2 -13,-1 -25,-1 -39,-2 -30,0 -57,-3 -82,-3 -6,0 -13,0 -22,0 -6,0 -14,0 -22,0 -15,0 -29,-1 -36,-3 -3,-9 -1,-61 -1,-75 -1,-5 -2,-10 -4,-14 -1,-5 -4,-11 -8,-17l-1 0c0,-1 0,-1 -1,-1l0 -1c0,0 0,-1 0,-1 -2,-1 -3,-2 -4,-3 -1,-2 -3,-3 -4,-5 -5,-5 -11,-11 -19,-13 -4,-2 -5,-3 -8,-4 -2,-1 -4,-1 -6,-1 -2,-1 -4,-2 -6,-2 -4,-1 -7,-1 -11,-2 -1,0 -2,0 -3,0 -10,0 -20,2 -27,6 0,0 -2,1 -2,1 -2,1 -2,1 -4,2l-42 28c-3,1 -6,4 -8,6l-30 20c-3,3 -3,4 -6,3 0,1 -1,2 -1,3 -24,17 -47,34 -71,50 -20,14 -42,31 -62,47 -1,1 -2,2 -4,3l-21 15c-11,6 -9,7 -13,10l-41 30c-8,5 -19,13 -30,22 0,0 -1,0 -2,1 -1,0 -1,1 -3,2 -2,2 -4,3 -5,5 -4,2 -9,6 -13,8 -2,1 -4,3 -5,4l-1 1 -2 1 -3 0c0,4 -1,3 -6,6l-14 11c-4,2 -5,4 -7,4 -1,2 -1,3 -1,4 -6,4 -11,7 -17,12l-15 11c-1,1 -2,2 -3,3l-2 1c-2,1 -4,3 -6,5 0,0 -1,0 -1,1l0 0 0 0 0 0c-2,1 -3,3 -4,4 -1,0 -1,1 -2,1 -1,1 -2,3 -3,4l-4 3c0,2 -11,21 -12,29 0,4 -2,9 -2,11 0,1 0,3 0,5l0 0 0 0c0,1 0,2 0,4 0,1 0,2 0,4l0 0 0 0c0,1 0,3 0,4 0,2 2,7 2,11 1,8 12,27 12,29l4 3c1,1 2,3 3,4 1,0 1,1 2,1 1,2 2,3 4,4l0 0 0 0 0 0c0,1 1,1 1,1 2,2 4,4 6,5l2 2c1,0 2,1 3,2l15 12c6,4 11,7 17,12 0,0 0,1 1,3 2,0 3,2 7,4l14 11c5,3 6,2 6,7l3 -1 2 1 1 1c1,1 3,3 5,4 4,3 9,6 13,8 1,2 3,3 5,5 2,1 2,2 3,3 1,0 2,0 2,0 11,9 22,18 30,23l41 29c4,3 2,4 13,10l21 16c2,1 3,2 4,3 20,15 42,32 62,46 24,16 47,34 71,50 0,1 1,2 1,3 3,-1 3,1 6,3l30 21c2,1 5,4 8,5l6 4c0,1 1,1 3,3 2,1 4,2 6,4 4,2 7,6 11,7l16 11c2,0 2,0 4,1 0,0 2,1 2,1 7,4 17,6 27,6 1,0 2,0 3,0 4,-1 7,-1 11,-2 2,0 4,-1 6,-1 2,-1 4,-1 6,-2 3,-1 4,-2 8,-3 8,-3 14,-9 19,-14 1,-2 3,-3 4,-5 1,-1 2,-2 4,-2 0,-1 0,-2 0,-2l0 -1c1,0 1,0 1,-1l1 0c4,-6 7,-11 8,-16 0,-1 0,-1 0,-2z"/>
  </g>
 </g>
</svg>
