<?xml version="1.0" encoding="UTF-8"?>
<!DOCTYPE svg PUBLIC "-//W3C//DTD SVG 1.1//EN" "http://www.w3.org/Graphics/SVG/1.1/DTD/svg11.dtd">
<!-- Creator: CorelDRAW X7 -->
<svg xmlns="http://www.w3.org/2000/svg" xml:space="preserve" width="8.5in" height="11in" version="1.1" style="shape-rendering:geometricPrecision; text-rendering:geometricPrecision; image-rendering:optimizeQuality; fill-rule:evenodd; clip-rule:evenodd"
viewBox="0 0 8500 11000"
 xmlns:xlink="http://www.w3.org/1999/xlink">
 <defs>
  <style type="text/css">
   <![CDATA[
    .fil2 {fill:none}
    .fil3 {fill:#FEFEFE}
    .fil0 {fill:#E83150}
    .fil1 {fill:#C2353E}
   ]]>
  </style>
    <clipPath id="id0">
     <path d="M3274 1630c277,0 500,224 500,500 0,276 -223,500 -500,500 -276,0 -500,-224 -500,-500 0,-276 224,-500 500,-500z"/>
    </clipPath>
 </defs>
 <g id="Layer_x0020_1">
  <metadata id="CorelCorpID_0Corel-Layer"/>
  <g id="_510250488">
   <path class="fil0" d="M3274 1630c277,0 500,224 500,500 0,276 -223,500 -500,500 -276,0 -500,-224 -500,-500 0,-276 224,-500 500,-500z"/>
   <g style="clip-path:url(#id0)">
    <g>
     <path id="1" class="fil1" d="M3551 1905c-1,4 0,2 1,5 0,2 0,4 0,6 1,7 3,12 1,22 -1,4 -1,7 -2,10 -4,15 -3,9 -5,14l-3 5c-1,3 0,2 -3,5 -4,6 0,3 -6,9 -1,1 -2,2 -3,3 -5,4 -4,4 -6,7l-8 7c-5,4 -4,5 -8,8l-21 21c-3,4 -14,13 -16,16 -2,2 -3,2 -6,6 -2,3 -4,3 -6,6 -5,5 -10,11 -15,15l-9 10c-1,0 -2,1 -2,1 -4,4 -2,3 -6,7 -1,1 -1,1 -2,1 -2,2 -2,2 -4,4 -1,0 0,0 -1,1 0,0 0,0 -1,1l0 0c-2,1 -2,2 -3,4l-20 20c-13,11 -12,11 -8,15l7 7c1,0 1,0 1,0 2,2 3,3 4,4l46 46c3,1 0,0 2,2l8 8c2,2 9,8 10,10l4 5c0,0 0,0 0,0l1 1c3,3 3,2 6,5 5,5 14,14 18,18 4,5 9,9 14,15l2 1c0,1 1,1 1,1 1,2 2,2 3,4l12 11c0,0 0,0 1,1l2 2c1,1 1,1 2,2 1,1 2,2 3,3 4,5 5,8 8,12 2,4 4,8 5,12l2 7c2,6 3,18 3,24 -1,2 -1,3 -1,5 -1,10 -1,5 -3,12 -1,6 -1,1 -2,7 -1,4 -1,1 -2,5l-7 12c-1,1 -1,2 -2,2 -2,4 -2,5 -6,8 0,0 -1,1 -1,1 -1,1 -1,0 -2,2 0,0 0,0 -1,1l-2 2c-2,1 -3,1 -4,3 -2,1 -2,1 -4,2l-2 2c-2,1 -4,1 -7,3 -2,1 -1,1 -4,2 -2,0 -3,1 -5,2 -9,3 1,0 -11,2 -3,0 -4,1 -6,1 -8,2 -14,-1 -17,-1 -7,-1 -6,1 -12,-2 -2,-1 -3,0 -5,-1l-4 -2c-2,-1 -3,-2 -5,-3l-3 -1c-5,-3 -1,-1 -4,-4 -4,-1 -10,-6 -13,-10l-11 -11c-2,-1 -3,-3 -4,-4 -2,-2 -4,-3 -5,-5l-4 -5 -3 -2c-5,-4 -11,-11 -16,-16l-7 -7c0,0 0,-1 0,-1l-17 -16c-3,-3 -5,-5 -8,-8 -5,-5 -15,-15 -20,-19 0,0 0,0 0,0l-1 -1c-4,-5 -9,-10 -14,-15 -3,-1 -4,-3 -6,-5 -1,-1 -1,-1 -2,-2 -2,-2 -2,-2 -2,-3 -2,-3 -5,-5 -7,-7 -2,-1 -1,0 -2,-2 -2,-1 -1,-1 -2,-2l-12 -11c-2,-4 -8,4 -10,6 -5,4 -4,5 -6,7l-10 10c0,0 0,0 0,0l-10 10c-1,1 -1,0 -1,1 -1,1 0,0 -1,1 0,0 0,0 0,0l-9 8c-2,2 -2,3 -4,5 -6,5 -15,15 -21,20 -1,1 -2,2 -2,2 -1,3 -2,2 -4,5l-45 45c0,0 -1,0 -1,0 0,0 0,0 0,1 -3,1 0,-1 -3,2l-16 16c-2,2 -7,7 -10,10 -10,6 -3,3 -14,8l-3 2c-6,4 0,0 -5,3 -4,2 -3,0 -6,1 -5,2 -16,3 -22,3 -9,0 -5,0 -10,-1 -4,-1 -6,0 -10,-2l-9 -2c-3,-1 -1,-1 -3,-2 -4,-2 -9,-4 -10,-5l-1 -1 -1 1 22 22c4,3 6,7 9,10 0,0 0,0 1,1l5 6c1,0 1,0 1,0l1 1c3,2 13,11 15,15 0,1 0,0 0,1l19 17c1,1 1,2 2,3l9 7c3,3 7,9 10,12 3,3 14,13 19,19 3,3 7,5 10,9 2,3 4,4 6,6l1 1c5,6 12,11 17,17l9 8c0,1 0,1 0,1l12 12c1,1 2,2 3,3 4,3 7,8 11,12 0,0 0,0 0,0l12 11c2,2 3,4 5,5 1,1 1,1 2,2l15 14c0,1 1,3 2,3l5 5c1,1 3,3 5,4 5,6 112,138 122,138 7,0 13,0 19,0 7,0 11,-1 18,-1 6,0 13,0 18,-2 5,-1 13,0 17,-1 4,-1 4,-2 8,-2 2,0 3,0 5,0 1,0 1,-1 3,-1 6,-2 11,-2 17,-3 3,0 4,-1 7,-2 3,0 5,-2 9,-1 3,0 5,-1 7,-2 2,0 3,0 5,0 1,-1 1,-1 2,-2l12 -2c1,-1 1,-1 3,-2 1,0 3,0 4,-1 1,0 0,-1 3,-1 4,-1 3,-1 8,-3 3,-1 4,-1 6,-2l5 -2c3,-1 2,-1 5,-1l47 -21c1,-2 0,0 1,-1l4 -2c4,-2 7,-4 11,-6 2,-1 2,-2 5,-2 1,0 4,-2 5,-3 2,-1 257,-23 262,-27 4,-4 15,-9 19,-12l6 -5c4,-2 4,-1 5,-3 0,0 1,0 1,0 0,0 0,0 0,0l7 -5c0,-1 0,-1 1,-1 0,0 0,0 0,0l9 -7c2,-1 2,-2 4,-4 2,0 1,0 2,-1l19 -16c2,-2 3,-2 4,-4 1,0 1,-1 2,-2l131 -115c1,-1 -118,104 -117,102 2,-2 123,-107 125,-109l19 -20c1,-2 2,-3 3,-5 4,-3 2,-3 3,-3 2,-3 8,-10 11,-14 1,-1 1,-1 2,-2 1,-2 1,-2 2,-3l3 -3c0,-1 5,-8 7,-9 2,-4 5,-7 6,-9 1,-3 -249,15 -247,12 0,-2 2,-4 3,-5l5 -9c2,-4 0,-2 2,-4 4,-3 5,-9 8,-12 1,-2 2,-2 3,-4l4 -10c2,-3 5,-8 6,-11l2 -4c0,0 0,0 0,0 1,-3 1,-2 2,-3l2 -5c0,-1 1,-2 1,-3 1,-2 0,0 1,-2 0,-1 5,-11 6,-15 0,-2 3,-7 4,-10 2,-7 4,-9 4,-10l10 -33c1,-3 1,-4 2,-6 0,-2 0,-4 1,-6 0,-2 1,-2 1,-5l3 -12c2,-5 6,-25 5,-29 0,-3 1,-4 1,-7 2,-6 -4,-66 -3,-71 0,-2 0,-6 1,-8l-174 -3 -53 -33c-2,-1 -7,-6 -9,-8 -1,-2 -4,-3 -5,-4 -2,-4 0,-2 -4,-5 -3,-3 -6,-6 -9,-9l-4 -4c-1,-2 -2,-3 -4,-5 -2,-1 -1,0 -2,-1l-7 -7c-1,-1 0,-1 -2,-3l-5 -4c0,-1 -1,-1 -2,-2l-4 -5c-1,-1 -4,-3 -6,-5 0,0 0,0 0,0 -3,-4 -7,-7 -11,-11 -2,-3 -2,-3 -5,-5 -2,-1 -3,-3 -4,-5l-9 -8c-4,-4 -6,-9 -10,-12 -1,-1 -1,-2 -2,-2 -2,-1 -4,-2 -5,-4l-17 -16c-3,-3 -6,-7 -10,-10 -4,-4 -15,-16 -19,-20l-12 -11c-3,-3 -5,-6 -8,-9 -2,-1 -1,0 -2,-2 0,0 0,0 0,0 0,0 -1,0 -1,0 -2,-3 -6,-5 -8,-8 -1,-1 -1,-1 -1,-2 0,0 -1,0 -1,-1 -1,-1 -2,-2 -3,-3l-5 -6c-1,0 -1,0 -2,-1l-23 -23c-1,-1 -1,-1 -1,-1l-2 -2c0,0 0,0 0,0 -1,-1 -2,-3 -4,-3 0,2 1,1 3,4 2,4 7,13 7,17z"/>
    </g>
   </g>
   <path class="fil2" d="M3274 1630c277,0 500,224 500,500 0,276 -223,500 -500,500 -276,0 -500,-224 -500,-500 0,-276 224,-500 500,-500z"/>
   <path class="fil3" d="M3090 2203c0,2 0,1 -1,2 0,0 0,1 0,1l-7 7c-1,1 -1,1 -2,1 -1,1 -1,1 -2,2l-1 1c0,0 0,0 -1,0 0,0 0,1 0,1l-29 29c-5,4 -3,3 -6,6 0,0 -1,1 -1,1 -2,2 -4,3 -5,4 -2,2 -3,4 -5,5l-7 7c-7,7 -13,14 -18,23 -1,2 -2,4 -3,6 -1,2 -5,13 -5,14 0,2 0,5 -1,8 -3,11 0,25 4,36 1,1 0,2 1,3l6 13 10 12c2,3 8,8 11,10l2 1 1 1c1,1 6,3 10,5 2,1 0,1 3,2l9 2c4,2 6,1 10,2 5,1 1,1 10,1 6,0 17,-1 22,-3 3,-1 2,1 6,-1 5,-3 -1,1 5,-3l3 -2c11,-5 4,-2 14,-8 3,-3 8,-8 10,-10l16 -16c3,-3 0,-1 3,-2 1,-3 0,-1 1,-3l18 -17c0,-1 0,-1 0,-1 0,0 1,0 1,-1l4 -4c2,-1 2,-2 4,-3 1,-2 2,-2 3,-3l4 -5c2,-1 1,-1 2,-2 1,-1 4,-3 6,-6 0,0 0,0 1,-1 0,0 0,0 1,0l3 -3c2,-2 -1,-1 2,-2 0,0 1,-1 2,-2 6,-5 15,-15 21,-20 2,-2 2,-3 4,-5l9 -8c0,0 0,0 0,0 1,-1 0,0 1,-1 0,-1 0,0 1,-1l10 -10c0,0 0,0 0,0l10 -10c2,-2 1,-3 6,-7 2,-2 8,-10 10,-6 3,0 4,2 5,3 3,4 9,9 11,12 2,2 5,4 7,7 1,0 4,3 5,4 1,1 1,2 2,3 3,2 2,1 3,3 5,5 10,10 14,15l1 1c0,0 0,0 0,0 5,4 15,14 20,19 3,3 5,5 8,8l17 16c0,0 0,1 0,1l7 7c5,5 11,12 16,16l3 2 2 0c0,3 0,1 1,2 3,3 1,-2 3,4l4 0c0,5 3,3 4,5 1,2 0,2 2,4 5,4 3,1 5,2 1,1 0,0 0,2 1,2 1,1 3,3 0,0 0,0 0,0 0,0 0,1 0,1l5 5c2,3 0,1 3,3 3,1 1,1 5,2l0 2c3,3 -1,1 4,4l3 1c2,1 3,2 5,3l4 2c2,1 3,0 5,1 6,3 5,1 12,2 3,0 9,3 17,1 2,0 3,-1 6,-1 12,-2 2,1 11,-2 2,-1 3,-2 5,-2 3,-1 2,-1 4,-2 3,-2 5,-2 7,-3l2 -2c2,-1 2,-1 4,-2 1,-2 2,-2 4,-3l2 -2c1,-1 1,-1 1,-1 1,-2 1,-1 2,-2 0,0 1,-1 1,-1 4,-3 4,-4 6,-8 1,0 1,-1 2,-2l7 -12c1,-4 1,-1 2,-5 1,-6 1,-1 2,-7 2,-7 2,-2 3,-12 0,-2 0,-3 1,-5 0,-6 -1,-18 -3,-24l-2 -7c-1,-4 -3,-8 -5,-12 -3,-4 -4,-7 -8,-12 -1,-1 -2,-2 -3,-3 -1,-1 -1,-1 -2,-2l-2 -2c-1,-1 -1,-1 -1,-1l-12 -11c-1,-2 -2,-2 -3,-4 0,0 -1,0 -1,-1l-2 -1c-5,-6 -10,-10 -14,-15 -4,-4 -13,-13 -18,-18 -3,-3 -3,-2 -6,-5l-1 -1c0,0 0,0 0,0l-4 -5c-2,-1 -4,-2 -6,-5 -1,-1 -3,-3 -5,-4 -1,-2 -3,-3 -4,-5 -1,-1 -1,-1 -2,-2 0,0 -1,0 -1,-1l-2 -2c0,0 0,0 0,-1l-46 -46c-1,-1 -2,-2 -4,-4 0,0 0,0 -1,0l-7 -7c-4,-4 -5,-4 8,-15l20 -20c1,-2 1,-3 3,-4l0 0c1,-1 1,-1 1,-1 1,-1 0,-1 1,-1 2,-2 2,-2 4,-4 1,0 1,0 2,-1 4,-4 2,-3 6,-7 0,0 1,-1 2,-1l9 -10c5,-4 10,-10 15,-15 2,-3 4,-3 6,-6 3,-4 4,-4 6,-6 2,-3 13,-12 16,-16l21 -21c4,-3 3,-4 8,-8l8 -7c2,-3 1,-3 6,-7 1,-1 2,-2 3,-3 6,-6 2,-3 6,-9 3,-3 2,-2 3,-5l3 -5c2,-5 1,1 5,-14 1,-3 1,-6 2,-10 2,-10 0,-15 -1,-22 0,-2 0,-4 0,-6 -1,-3 -2,-1 -1,-5l-2 -2c0,-1 0,-2 -1,-3l-4 -8c-2,-4 -4,-8 -7,-11l-8 -10c-1,-1 -1,-1 -2,-1l-5 -3c-4,-3 -4,-2 -6,-5l-2 -1c-1,0 -2,-1 -4,-2 -9,-4 -6,-2 -9,-3 -3,-1 -6,-3 -10,-3 -10,-2 -25,-2 -35,1 -2,0 -8,2 -10,2 -3,0 0,0 -3,2 -2,0 -2,0 -4,1 -1,1 -2,1 -3,2 -2,1 -2,1 -4,2l-8 7c-4,3 -4,4 -6,5 -1,1 0,0 -2,2 0,0 0,0 0,0l-3 3c-1,1 -1,1 -2,3 -1,1 -2,1 -3,2l-18 18c-5,6 -15,15 -21,21 -2,3 -3,3 -5,5l-18 19c-2,2 -3,1 -5,4 -1,2 -2,2 -3,3 -2,2 -3,4 -5,6l-16 16c0,0 -1,1 -1,1l-29 28c0,0 0,0 0,0l-5 5c-1,0 -1,1 -1,1 -8,10 -6,6 -23,-10 -2,-1 -2,-2 -3,-3l-3 -3c0,0 0,0 -1,-1l-4 -4c-2,-2 -4,-3 -6,-5 -2,-3 -3,-4 -5,-6l-44 -44c-2,-1 -2,-2 -3,-3 -1,-1 -2,-2 -3,-2l-1 -1c-2,-2 -5,-5 -7,-6l0 -2 -5 -5c0,0 0,0 0,0 -1,-1 0,0 -1,-1 0,-1 -2,-2 -3,-2l-8 -9 -29 -28c-1,-1 0,1 -1,-2 -1,0 -4,-4 -5,-5 -3,-3 -6,-5 -10,-7l-19 -9c-4,-1 -3,-2 -8,-2 -6,0 -12,-5 -25,-1 -4,1 -8,0 -11,1l-1 0c-3,2 -10,4 -17,8l-21 17c-2,2 -2,4 -4,6 -2,2 -3,3 -4,6 0,0 -1,1 -1,1 -4,8 -4,9 -7,18 -1,3 -1,6 -2,9 0,3 -1,3 -1,8 0,15 1,10 2,17 0,6 0,4 1,8 1,4 2,7 4,10 1,2 1,2 1,4 1,1 1,1 2,3l8 11c2,5 7,7 10,11 3,3 13,13 16,16 1,1 1,1 2,2 1,1 0,0 1,1l6 6c2,2 3,3 5,5l5 5c6,6 12,12 19,19l4 4c2,2 3,4 5,5 2,2 3,4 5,5l10 10c3,3 6,6 9,9l5 5c0,0 1,0 1,0l6 7c4,3 6,7 10,9 1,2 0,0 1,1l3 5c1,0 2,1 3,2 1,2 3,3 4,5 2,2 3,3 5,4 1,1 2,2 2,3l5 5c2,2 7,4 7,8 0,1 -1,2 -2,4l-17 17c-3,3 -7,6 -9,9l-32 31c-2,3 -7,7 -10,10 0,0 0,0 0,0l-2 2z"/>
  </g>
 </g>
</svg>
