<?xml version="1.0" encoding="UTF-8"?>
<!DOCTYPE svg PUBLIC "-//W3C//DTD SVG 1.1//EN" "http://www.w3.org/Graphics/SVG/1.1/DTD/svg11.dtd">
<!-- Creator: CorelDRAW X7 -->
<svg xmlns="http://www.w3.org/2000/svg" xml:space="preserve" width="8.5in" height="11in" version="1.1" style="shape-rendering:geometricPrecision; text-rendering:geometricPrecision; image-rendering:optimizeQuality; fill-rule:evenodd; clip-rule:evenodd"
viewBox="0 0 8500 11000"
 xmlns:xlink="http://www.w3.org/1999/xlink">
 <defs>
  <style type="text/css">
   <![CDATA[
    .fil2 {fill:#FEFEFE}
    .fil1 {fill:#848688}
    .fil0 {fill:#5DA451}
    .fil3 {fill:#1B874C}
   ]]>
  </style>
 </defs>
 <g id="Layer_x0020_1">
  <metadata id="CorelCorpID_0Corel-Layer"/>
  <g id="_514493936">
   <path class="fil0" d="M4326 3331c15,0 9,-5 14,-7 2,0 6,-1 9,-1 9,-1 35,-1 46,-1l979 -97c9,0 39,-1 46,2 9,4 4,5 10,6 3,1 7,1 8,2 2,1 -1,-2 1,1l1 2c2,2 0,0 3,2l5 2c0,0 0,0 0,0 6,3 2,2 5,6 2,2 4,2 6,4l4 10c2,7 3,3 6,8 1,3 1,6 1,9l-1 2 5 6c2,3 3,5 3,9 2,16 1,410 1,429 0,88 0,179 0,267 0,18 -4,74 -1,89 147,15 161,-94 161,-198 0,-338 -2,-1861 -2,-660 -14,0 -206,0 -214,1l-29 -1c-346,0 -692,98 -1038,97 -8,0 -12,1 -19,1l-3 6c-7,3 -7,-2 -7,4z"/>
   <path class="fil1" d="M4281 3974l3 5 1 94 1195 8c2,0 -2,-81 1,-105 -2,2 -3,5 -5,8l-1189 -1c-1,-4 -3,-6 -3,-11l0 -1 -2 -1c0,4 0,1 -1,4z"/>
   <g>
    <path class="fil2" d="M4443 3641c4,0 5,-1 7,-1l865 0c2,0 3,1 7,1 0,9 2,5 2,11 0,4 0,9 0,14l-2 75c-1,4 1,-5 0,1 0,1 0,2 0,3 -5,0 -9,1 -16,1l-847 0c-6,0 -11,-1 -16,-1 0,-6 -1,-4 -1,-8 -1,0 -1,-2 -1,-3l1 -84c0,-4 1,-1 1,-9zm1034 -260c2,-38 4,-62 -44,-61 -3,-4 -2,-4 -6,-4 -5,-1 -21,0 -25,-3 -2,-1 -3,-3 -4,-5l-1026 0 1105 73zm-1107 -73l-5 0c-5,-1 -4,-1 -6,1 -6,5 -13,4 -17,7l-6 -1c-1,3 -1,4 -2,6 -3,4 -8,4 -14,4 0,3 0,2 -1,4 -1,4 -3,4 -6,4 0,5 1,3 -2,5 -2,2 -3,2 -6,2l0 6 -7 2c-2,5 0,13 -5,16l-5 3 0 623 1189 0 0 -609 -1107 -73zm74 180c0,-6 1,-12 7,-14 14,-4 14,-2 32,-2l798 0c9,0 34,-4 38,6 0,2 2,8 2,11 0,22 1,51 0,72 -4,3 -9,5 -17,5l-843 0c-8,0 -13,-1 -17,-3l0 -75z"/>
   </g>
   <path class="fil3" d="M4494 3179c5,1 8,2 11,5 3,3 4,3 9,3 1,0 2,0 3,1l2 0c0,0 0,0 0,0l7 1c4,0 9,0 13,0l596 -6c36,0 72,0 108,0 5,0 7,-1 12,-2 8,-1 6,-1 11,-5l2 -1c8,-5 5,2 12,-7 2,-2 1,-1 2,-2 1,0 2,-1 3,-1 2,-1 2,-1 3,-3 1,-1 0,0 1,-2 3,-4 3,-1 6,-5l7 -11c2,-2 -3,-35 0,-36 1,-14 2,-9 5,-14 3,-5 3,-51 2,-54 -1,1 -1,2 -2,4 -2,2 -1,1 -3,2 -96,52 -769,72 -840,-4l-4 -4c-3,-4 0,-11 -6,-11l-2 1c6,1 1,-1 4,2 -4,1 -3,0 -3,6l0 29c0,9 1,68 5,74 0,1 0,1 0,1l4 8c5,14 0,2 10,14l0 1c3,2 3,1 6,4 5,6 -1,2 8,7l2 2c2,3 3,4 6,3z"/>
   <path class="fil3" d="M4971 2744l242 0 0 -70c-53,0 -106,0 -158,0 -26,0 -53,0 -79,0 -6,0 -5,-3 -5,12l0 58z"/>
   <path class="fil0" d="M5212 2740l-240 0 2 241c0,0 -1,1 3,2l116 0c15,0 113,1 119,-2 2,-18 0,-42 0,-61l0 -180zm-1076 -50l-9 628c0,61 1,123 0,184l0 371c0,15 0,31 0,46 1,5 1,18 2,22 -7,138 23,132 158,134 1,-59 0,-120 0,-180l0 -450c0,-8 1,-60 2,-65 2,-34 22,-61 47,-59 7,1 11,-1 19,-1 346,1 692,0 1038,0l29 1c8,-2 200,-1 214,-1 0,-1092 2,217 2,563 0,9 1,26 0,35 1,-95 0,-190 0,-284l0 -715 0 -72 -250 -271c-10,-8 -63,-8 -77,-4 -2,14 0,89 0,108 0,10 -4,399 -5,400 0,2 -2,4 -2,7 0,3 0,5 -1,8 -1,12 -5,12 -8,20 -3,8 -5,6 -7,10 -2,3 -1,2 -4,5 -2,2 -2,2 -4,4 -4,5 -5,2 -8,7 -3,6 -2,2 -8,5 -5,3 -5,6 -11,7 -8,2 -8,1 -13,5 -8,4 -22,3 -33,3l-650 0c-13,0 -24,1 -32,-4 -8,-5 -15,-3 -20,-7 -3,-2 -1,-2 -5,-4 -2,-1 -2,-1 -3,-2 -2,-1 -2,-1 -2,-2 -7,-9 -3,-1 -10,-9 -2,-2 -3,-2 -5,-3 -2,-3 -1,-4 -3,-6 -1,-2 -3,-3 -5,-5 -1,-2 -1,-5 -6,-12 -6,-9 -3,-18 -7,-28 -1,-3 -2,-3 -2,-7l-4 -500c0,-1 -190,-5 -212,9 -40,12 -97,51 -105,109z"/>
   <path class="fil1" d="M4433 3753l898 -1 1 -106c0,-10 -3,-7 -20,-7l-857 0c-6,0 -11,0 -17,0 -3,0 -4,-1 -4,4 -1,2 0,11 0,13 0,30 1,68 -1,97z"/>
   <path class="fil1" d="M4433 3575l898 -1 1 -106c0,-10 -3,-7 -20,-7l-857 0c-6,0 -11,0 -17,0 -3,0 -4,-1 -4,4 -1,2 0,11 0,13 0,30 1,68 -1,97z"/>
  </g>
 </g>
</svg>
