<?xml version="1.0" encoding="iso-8859-1"?>
<!-- Generator: Adobe Illustrator 19.0.0, SVG Export Plug-In . SVG Version: 6.00 Build 0)  -->
<svg version="1.1" id="Capa_1" xmlns="http://www.w3.org/2000/svg" xmlns:xlink="http://www.w3.org/1999/xlink" x="0px" y="0px"
	 viewBox="0 0 490.88 490.88" style="enable-background:new 0 0 490.88 490.88;" xml:space="preserve">
<path style="fill:#4CAF50;" d="M245.419,0C109.866,0.012-0.012,109.909,0,245.461c0.012,135.553,109.909,245.43,245.461,245.419
	c135.544-0.012,245.419-109.896,245.419-245.44C490.727,109.942,380.916,0.141,245.419,0z"/>
<path style="fill:#FAFAFA;" d="M202.88,384.213c-5.891,0.011-10.675-4.757-10.686-10.648c-0.005-2.84,1.123-5.565,3.134-7.571
	l120.491-120.448L195.328,125.099c-4.092-4.237-3.975-10.99,0.262-15.083c4.134-3.992,10.687-3.992,14.82,0l128,128
	c4.164,4.165,4.164,10.917,0,15.083l-128,128C208.412,383.093,205.704,384.213,202.88,384.213z"/>
<g>
</g>
<g>
</g>
<g>
</g>
<g>
</g>
<g>
</g>
<g>
</g>
<g>
</g>
<g>
</g>
<g>
</g>
<g>
</g>
<g>
</g>
<g>
</g>
<g>
</g>
<g>
</g>
<g>
</g>
</svg>
