<?xml version="1.0" encoding="UTF-8"?>
<!DOCTYPE svg PUBLIC "-//W3C//DTD SVG 1.1//EN" "http://www.w3.org/Graphics/SVG/1.1/DTD/svg11.dtd">
<!-- Creator: CorelDRAW X7 -->
<svg xmlns="http://www.w3.org/2000/svg" xml:space="preserve" width="8.5in" height="11in" version="1.1" style="shape-rendering:geometricPrecision; text-rendering:geometricPrecision; image-rendering:optimizeQuality; fill-rule:evenodd; clip-rule:evenodd"
viewBox="0 0 8500 11000"
 xmlns:xlink="http://www.w3.org/1999/xlink">
 <defs>
  <style type="text/css">
   <![CDATA[
    .fil0 {fill:#ED3237}
    .fil1 {fill:#184284}
   ]]>
  </style>
 </defs>
 <g id="Layer_x0020_1">
  <metadata id="CorelCorpID_0Corel-Layer"/>
  <g id="_526207992">
   <path class="fil0" d="M4025 5461c-1,0 -5,4 -6,5 0,7 -8,12 -14,17 -3,3 -2,3 -4,5 -3,3 -4,2 -6,5 -2,2 -1,2 -4,5 -2,2 -3,2 -5,5 -2,2 -3,2 -5,4l-91 92c-2,2 -2,3 -5,5l-9 9c-8,7 -6,8 -11,9 -4,2 -13,13 -14,14 -3,3 -3,2 -7,6l-21 21c-2,2 -10,12 -13,13 -1,4 -16,19 -19,21 -3,3 -2,3 -5,5l-17 15 -82 83c-3,3 -5,3 -7,7l-12 13c-2,4 -38,39 -47,48l-7 6c-2,5 -20,20 -24,25 -7,8 -16,16 -24,24 -11,12 -2,16 11,30l50 49c8,9 16,18 25,25 23,23 50,52 73,74l37 37c24,24 21,25 43,3l96 -95c3,-3 -2,-2 5,-3l28 -29c2,-1 2,-1 3,-3l26 -26c3,-3 4,-4 7,-7l45 -43c2,-4 4,-4 6,-8 0,-4 12,-13 15,-16 3,-4 1,-4 6,-5 0,-4 17,-19 21,-23 2,-2 3,-3 4,-4 3,-3 1,-2 6,-4 2,-2 4,-3 6,-6 2,-7 11,-14 16,-19 7,-7 45,-47 52,-50 1,-1 2,-2 3,-3 2,-1 2,-1 3,-2 2,-6 19,-21 24,-27 5,-4 9,-8 13,-12 4,-4 9,-10 14,-12 2,-1 7,-5 8,-8 1,-4 40,-43 44,-46 0,-14 -9,-17 -25,-34 -56,-58 -116,-117 -173,-173 -5,-6 -10,-10 -15,-15 -2,-2 -6,-6 -7,-7 -5,-4 -9,0 -10,-1 0,0 -1,1 -1,1z"/>
   <path class="fil0" d="M3471 6057l-6 32c-2,13 -3,20 -6,31 -2,8 -3,25 -4,35 -1,8 -7,26 -6,31 1,25 -5,33 -7,46 -1,8 -1,16 -2,24 -1,7 -4,16 -3,22 8,2 20,0 34,-1 24,-2 17,-6 33,-7 13,-2 23,-2 34,-5 11,-3 23,-4 36,-5 11,-2 21,-6 33,-7 13,-1 21,-1 33,-5 9,-4 36,-3 68,-13 -1,-6 0,-3 -3,-7 -2,-3 -2,-1 -3,-5 -3,-1 -1,0 -3,-1 0,0 -2,-2 -2,-2 -2,-2 -3,-3 -4,-6 -2,-5 -7,-2 -6,-10 -4,0 -3,0 -6,-3l-10 -10c-5,-4 -13,-13 -14,-14l-30 -30c-13,-15 -42,-40 -59,-59 -9,-10 -5,-4 -10,-9 -3,-3 -6,-7 -9,-10l-20 -19c-5,-2 -6,-4 -9,-8 -3,-3 -6,-4 -7,-8 -6,-2 -16,-15 -22,-20 -4,-4 -3,-4 -9,-5 -3,16 -6,14 -8,35 0,5 1,12 -3,13z"/>
   <path class="fil0" d="M4109 5378c-1,6 -4,4 -7,8 -3,4 -2,4 -6,7l0 8c3,2 6,4 7,9 4,0 5,2 7,5 4,4 15,13 17,18l15 15c7,11 8,10 15,16 4,4 18,20 23,23 4,3 2,3 7,7 4,1 5,2 11,9 7,7 9,8 10,12 2,5 5,3 7,7 5,2 33,30 34,33 4,1 -1,0 2,1l26 26c4,4 24,24 25,27 6,1 3,2 7,6 4,3 5,3 8,7 9,0 9,-3 20,-13l11 -12c1,-1 2,-1 3,-2 1,-1 1,-1 3,-1 1,-4 2,-4 5,-7 2,-2 3,-4 5,-6 7,-7 8,-9 14,-10l2 -2c1,-5 2,-5 7,-10 3,-3 4,-5 7,-7 0,-10 -2,-11 -11,-20 -4,-4 -13,-10 -14,-16 -2,-3 -1,-1 -4,-3l-8 -9c-2,-1 -2,-1 -4,-3 -3,-3 -6,-5 -8,-8 -4,-5 -3,-4 -7,-8 -5,-1 -27,-24 -34,-30 -11,-11 -28,-30 -40,-40l-27 -27c-5,-7 -5,-5 -9,-9 -3,-5 -5,-5 -8,-10l-9 -9c-4,-4 -15,-12 -17,-18l-16 -14c-1,-3 -7,-8 -10,-8 -5,1 -19,18 -23,22 -4,3 -4,4 -8,7 -3,2 -4,5 -7,7 -8,7 -3,4 -7,8 -1,1 -3,2 -4,3 -2,2 -2,2 -3,4 -2,2 -6,4 -7,7z"/>
   <path class="fil1" d="M3232 6054l11 -24c7,-8 2,-2 6,-12 3,-8 4,-6 7,-13 1,-3 1,-3 2,-6 2,-3 2,-4 4,-6 4,-6 11,-26 15,-31 2,-2 3,-3 4,-5 1,-3 1,-4 2,-7l9 -19c3,-6 2,1 6,-12 3,-9 5,-7 7,-12l11 -27c2,-5 5,-5 7,-10 0,-3 1,-5 2,-7 1,-4 2,-3 4,-7l11 -25c2,-6 4,-4 7,-11l21 -44c7,-9 1,-10 8,-19 5,-6 4,-9 6,-13 2,-2 3,-2 4,-5 1,-2 2,-4 3,-6 3,-9 4,-7 6,-12 2,-5 2,-9 6,-13 6,-6 2,-5 10,-17 3,-7 12,-25 13,-33l7 -17c1,-3 3,-3 4,-7 4,-8 -1,-3 8,-15 5,-6 0,-7 7,-15l11 -23c1,-3 2,-5 3,-8 2,-4 3,-3 5,-6 2,-3 2,-6 3,-9 1,-3 3,-3 5,-6 2,-4 1,-5 3,-8 4,-5 2,0 5,-6 3,-6 2,-10 7,-16 1,-3 2,-4 4,-7 2,-6 0,-4 3,-8l3 -3c0,0 1,-4 1,-4 3,-12 4,-10 7,-16 2,-3 2,-5 3,-8l15 -30c1,-4 1,-6 3,-9 6,-7 4,-8 8,-15 2,-4 2,-2 4,-7 1,-2 2,-5 3,-8 1,-2 1,-1 2,-3l21 -41c2,-4 6,-9 8,-14 2,-4 1,-6 3,-9 5,-6 2,1 5,-6 1,-4 1,-7 3,-10 6,-9 4,-6 9,-17 0,0 0,0 0,0 0,-1 2,-4 2,-4l11 -23c6,-14 6,-10 8,-15 1,-4 1,-5 3,-8 1,-3 3,-5 4,-7 4,-7 -1,-2 7,-15l18 -39c2,-2 3,-5 4,-8 0,-1 7,-13 10,-15l0 -1c2,-10 10,-22 13,-30 2,-6 5,-10 7,-15 1,-3 1,-4 3,-7 1,-3 2,-4 4,-6 3,-5 -1,-3 7,-15 2,-4 3,-10 6,-13 3,-4 4,-2 5,-5 3,-7 -2,0 6,-15 3,-6 2,-5 5,-6l0 -2c1,-4 8,-22 12,-26 4,-6 0,-3 6,-13 1,0 1,-1 1,-1 3,-4 3,-6 6,-8 -2,-5 7,-21 10,-26l12 -25c2,-5 2,-5 5,-9 3,-4 1,-2 3,-8 2,-9 5,-9 8,-16 5,-14 5,-8 8,-16 1,-3 2,-7 3,-9 2,-4 3,-4 5,-7l20 -41c2,-4 3,-5 5,-8 3,-7 0,-7 6,-13 4,-5 2,-6 6,-12l13 -23c3,-8 5,-6 10,-14 2,-4 3,-3 6,-6 7,-9 10,-15 20,-17 2,-5 4,-3 6,-5 1,-4 0,-2 3,-4 7,-7 4,-4 10,-7 2,-2 7,-8 16,-7 1,-2 1,-2 5,-4 13,-10 61,-10 75,0 4,3 8,3 12,5 3,2 2,3 10,7 4,2 3,3 7,6 1,0 1,0 2,1 13,9 23,23 33,34l13 22c2,4 3,4 6,9l17 31c2,8 3,6 6,12 3,6 9,24 16,34 3,4 2,7 5,11 1,4 3,2 6,11 2,7 3,6 6,11 1,3 3,9 5,12l5 11c1,2 2,5 3,6 8,12 1,0 8,17 4,8 8,14 12,21 2,4 2,9 4,12 3,4 2,1 4,5 2,2 2,4 2,6 1,4 1,4 3,7l29 59c2,5 5,8 7,12l9 18c1,3 1,4 1,6 2,4 1,1 4,5l14 29c2,8 3,3 6,11 8,22 4,5 8,16 1,2 1,4 2,6 3,8 2,0 8,18 1,4 -1,-1 3,3 4,5 3,7 6,12 3,6 4,4 6,11 5,12 5,8 11,24l16 33c2,7 0,2 3,5 5,6 3,9 8,17 4,5 3,7 6,12 1,4 4,7 6,10 2,4 3,9 5,12 4,5 4,3 5,11 1,1 0,-1 1,1l7 12c3,9 5,9 8,17l8 18c0,0 0,1 0,1l2 4c3,4 3,2 7,11 2,7 12,22 16,35 2,7 4,4 9,16 2,5 2,5 5,8 2,4 1,4 3,9 2,3 3,4 5,8 2,2 3,6 4,9 2,2 4,3 5,7 2,3 2,6 3,9 2,3 3,4 5,8 2,4 2,7 4,10 1,3 4,4 5,6 1,4 1,6 3,10 2,4 3,5 5,8 2,3 1,5 4,9 2,3 3,3 4,8 6,16 2,6 8,17 2,3 2,6 3,9 3,6 9,9 7,18 1,0 3,-1 7,7 1,4 1,8 4,11 4,5 2,2 5,9 5,14 6,9 9,19 1,1 11,20 14,30l20 38c0,2 1,3 1,5 1,2 3,3 4,4l4 12c3,5 8,13 9,20 1,1 1,2 2,2 6,3 2,5 8,12 4,5 3,6 5,13 2,4 5,6 7,11 5,13 6,7 9,17l3 7c4,6 3,5 6,12 2,6 4,6 6,12 4,9 -1,2 6,13l12 25c3,11 1,4 6,12 3,5 0,5 5,12l12 24c3,7 10,15 11,25 0,1 0,1 0,1l4 1c2,10 11,27 16,35 2,4 3,7 5,12 3,5 4,4 6,10 3,10 3,5 6,11 2,4 2,9 5,13 3,4 5,5 5,12 0,4 4,9 6,13 1,4 3,12 6,13 5,0 3,0 6,9 2,4 4,6 6,9 1,4 2,6 4,9l14 29c4,10 8,7 8,21 0,6 1,1 5,7 1,1 1,2 1,3 2,6 2,6 6,12 3,3 15,34 16,36 6,7 13,37 18,53 4,14 3,38 2,52 0,10 1,14 -3,23l-1 2c-5,11 -2,17 -7,25 -2,3 -3,2 -3,5 0,8 -2,10 -5,14 -6,8 -2,6 -8,11 -4,4 -3,5 -9,11 -9,8 -5,5 -15,13 -3,2 -3,3 -5,5 -3,1 -4,1 -6,3 -9,7 -8,5 -18,11 -5,3 -10,4 -16,5 -2,0 -4,3 -6,4 -3,1 -6,2 -10,1 0,1 0,1 0,1 -1,1 -1,1 -1,1 -17,10 -68,11 -86,11 -33,-1 -66,-1 -99,-1l-394 -2c-66,0 -133,-2 -198,-1 -131,1 -262,-3 -392,-4 -34,0 -217,0 -244,-5 -5,-1 -11,-4 -18,-6 -21,-4 -6,-1 -19,-6 -5,-2 -13,-3 -18,-7l-8 -4c-1,-1 -2,-1 -3,-2 -10,-8 -3,-2 -12,-8 -1,0 -18,-13 -19,-18 -7,0 -9,-8 -16,-15 -3,-3 -1,-1 -3,-5 -4,-6 -4,-1 -9,-14 -2,-5 -4,-6 -6,-10 -1,-4 -2,-9 -3,-14 -2,-9 -5,-7 -7,-24 -1,-15 -1,-60 4,-74 6,-18 2,-11 6,-25l9 -23c9,-12 2,-8 11,-22 2,-4 2,-5 5,-11 1,-4 3,-6 5,-9 3,-5 2,-7 5,-11 3,-4 3,-7 5,-11 2,-6 4,-6 6,-11 3,-4 2,-6 6,-12l14 -31c3,-6 4,-3 6,-10 5,-14 6,-10 8,-16 1,-2 1,-3 2,-5 1,-2 2,-4 3,-5l5 -5zm651 -1511l-3 3c-2,2 -1,1 -4,2 -2,1 -5,1 -9,2 -9,2 -7,5 -14,7 -11,3 -8,1 -17,7 -5,3 -9,2 -15,7 -4,2 -3,2 -7,4 -6,2 -6,4 -14,8 -5,3 -16,12 -20,15 -2,1 -5,2 -7,4 -4,4 0,3 -7,5l-19 16c-1,0 -1,0 -1,0 0,0 -1,1 -1,1l-28 31c-5,5 -3,5 -7,10l-15 19c-3,4 -4,3 -7,9 -4,7 -1,7 -8,10 -1,7 -6,9 -7,12 -4,6 -3,10 -8,16 0,0 -1,1 -1,1l-2 3c-1,3 -1,5 -3,8 -1,3 -2,3 -4,6 -1,2 -1,3 -2,7 -1,6 -5,8 -7,13 -1,3 -1,5 -2,8 -1,2 -3,3 -4,6 -2,2 -2,4 -3,7 -3,5 -5,4 -8,13 0,2 0,1 -1,3 -2,4 -1,1 -2,3 -1,2 -1,4 -3,7 -3,8 -8,16 -10,20 -2,10 -4,8 -7,14 -2,5 -1,8 -5,14l-7 12c-3,4 -17,37 -20,39 -1,3 -3,10 -4,13 -3,4 -4,2 -6,9l-21 44c-8,12 -10,25 -19,37l-2 5c-3,6 -2,6 -6,11 -3,5 -2,7 -4,12 -3,5 -4,4 -6,10 -2,8 -2,6 -5,11 -4,5 -3,9 -8,17 -2,3 0,1 -2,1 -3,10 -15,33 -20,44 -2,4 -3,5 -4,7 -2,4 -2,6 -3,9l-18 35c-2,3 -3,4 -5,6 -1,4 -1,7 -2,9 -2,4 -3,4 -5,7 -2,4 -4,10 -6,15 -5,8 -5,12 -7,15 -2,3 -2,2 -4,6 -1,2 -2,5 -3,8 -3,7 -3,3 -7,15l-15 28c-3,6 -4,10 -7,15 -3,6 -2,9 -5,12 0,0 -1,0 -1,1 -2,1 0,0 -2,1 0,8 -9,19 -11,24l-16 36c-4,10 -1,5 -6,12 -3,4 -2,7 -6,12 -5,6 -4,5 -6,12 -2,6 -4,6 -6,11 -3,6 -2,7 -6,12 -4,6 -3,7 -5,13 -2,7 -4,3 -6,12 -4,11 -6,10 -9,17 -1,2 -1,4 -3,6 -3,6 -3,5 -5,13 -2,6 -4,6 -7,10l-11 25c-2,4 -4,6 -6,11 -2,6 -2,7 -6,12 -3,3 -3,7 -5,11 -3,6 -4,4 -7,11 -3,9 -2,6 -6,13l-11 24c-2,7 -4,7 -6,11l-11 25c-2,4 -4,6 -6,11 -3,8 -3,7 -6,12 -3,5 -4,9 -6,13 -5,10 -4,9 -8,11 -1,4 -5,5 -8,15 -1,8 -1,4 -5,8 -2,2 -3,5 -2,8 0,8 -3,6 -7,16 -1,3 -1,5 -3,8l-7 15c-3,4 -3,2 -5,6 -2,7 -2,10 -6,16 -4,5 -4,9 -7,15 -2,3 -3,4 -5,7l-7 15c-3,6 -2,9 -9,19l-1 1c0,0 -1,1 -1,1 0,0 -1,0 -1,1 0,0 0,0 0,0l-12 24c-5,8 -9,24 -16,32 -2,3 -3,5 -3,9 0,13 -4,8 -7,19 -3,10 -6,9 -9,18l-9 18c-2,4 -2,5 -5,9 -3,4 -2,6 -4,10 -1,4 -3,3 -5,8 -4,9 2,1 -7,16 -3,4 -4,10 -5,12 -3,4 -4,3 -6,8 -2,6 0,5 -3,10l-14 28c-2,6 -2,3 -5,8l-13 28c-1,2 -3,4 -5,8 -3,7 0,6 -6,14 -6,8 -2,10 -7,15l-4 7c-2,10 -3,13 -7,20 -4,7 -3,13 -7,21 -3,6 -3,14 -5,21 -1,3 -2,8 -2,11 -2,4 -3,4 -4,10 -2,14 -1,17 -4,35 -4,19 -3,72 1,88 2,8 2,16 3,24 2,13 3,-2 7,20 5,26 2,8 9,31 2,5 3,6 5,10 3,5 2,11 7,19 6,8 3,8 10,18 2,3 2,6 4,9 2,4 3,4 6,8 4,8 7,9 10,16 6,10 23,24 24,31 4,1 9,7 15,14 8,8 16,14 24,21 3,2 1,1 4,4 9,5 8,6 13,9 8,5 8,4 8,8 7,0 10,4 14,7 6,4 13,3 13,10 8,-3 15,5 21,7 4,2 6,2 10,4 4,3 3,3 9,5 8,2 10,0 16,5 2,1 3,2 5,3 2,0 11,2 23,6 11,4 17,1 36,9l10 1c49,5 55,7 108,7 56,0 112,2 169,2l340 1c36,0 77,-1 113,0 35,2 77,2 112,2 149,0 301,5 450,5 38,-1 75,1 112,-3l51 -6c3,0 6,-2 9,-3 9,-4 17,-3 24,-5 6,-2 3,-3 10,-5 7,-3 12,-1 17,-4 4,-3 0,-1 4,-3 6,-4 12,-3 21,-8 4,-2 4,-2 9,-4 6,-2 5,-3 9,-5 4,-2 7,-3 15,-7 4,-3 2,-2 7,-2 4,-1 -1,-1 3,-1 1,-1 1,-1 1,-1 0,0 3,-4 7,-7 5,-3 3,0 8,-5 3,-4 4,-2 8,-5l64 -62c4,-4 2,-5 5,-9l6 -8c3,-3 4,-3 7,-7l10 -19c1,-2 3,-3 5,-7 2,-4 3,-7 4,-10 3,-4 4,-4 6,-9 4,-14 6,-12 8,-20 1,-4 2,-7 3,-10 9,-21 3,-10 10,-32 4,-13 3,-28 6,-42 1,-5 1,-2 2,-6 3,-12 3,-40 2,-53l-5 -35c-3,-13 1,-8 -7,-37 0,-3 -2,-8 -2,-10 -1,-4 -1,-9 -2,-12 -3,-9 -6,-7 -7,-20 -1,-7 -2,-6 -4,-11 -3,-4 -2,-6 -4,-11 0,-4 -2,-8 -3,-10 -3,-5 -3,-2 -5,-10 -1,-5 -3,-6 -4,-9 -5,-8 -1,-4 -10,-18 -2,-3 -3,-6 -4,-10 -2,-4 -3,-4 -5,-8 -2,-3 -2,-8 -4,-11 -2,-4 -3,-4 -5,-8 -5,-13 -17,-33 -18,-38 -1,-1 -2,-5 -2,-6l-2 -3c0,0 -1,0 -1,0l-13 -30c-3,-4 -6,-3 -5,-10 -6,-3 -10,-19 -12,-22 -3,-4 -2,1 -6,-10 -3,-8 -5,-6 -7,-11 -2,-6 -1,-8 -4,-13 -6,-7 -3,-5 -6,-13 -1,-3 -5,-6 -6,-10 -2,-2 -2,-4 -3,-6 -1,-3 -2,-3 -3,-6 -3,-4 -3,-8 -6,-12 -1,-3 -5,-7 -6,-10 -5,-14 -2,-5 -6,-11 -2,-4 -3,-10 -5,-14 -2,-4 -4,-5 -6,-10 -4,-9 -4,-7 -7,-12 -2,-7 -1,-6 -5,-12 -3,-3 -4,-8 -5,-12 -2,-5 -5,-6 -7,-11 -2,-7 -1,-6 -5,-11 -4,-5 -2,-7 -5,-12 -2,-5 -5,-6 -7,-11 -2,-9 -1,-6 -5,-12 -3,-5 -3,-9 -5,-13l-12 -24c-2,-3 -3,-8 -5,-11 -2,-5 -1,-1 -4,-6 -1,-2 -1,-3 -2,-6l-12 -23c-2,-3 -1,0 -3,-5 -6,-14 -20,-34 -19,-43 -3,-1 -4,-3 -6,-7 -1,-3 -1,-6 -3,-9 -9,-16 -3,-6 -8,-16 -2,-3 -4,-5 -5,-8 -7,-18 -4,-8 -8,-17 -2,-2 -2,-6 -4,-9 -3,-7 -1,2 -8,-16 -1,-4 -3,-5 -5,-10l-8 -14c-2,-3 -2,-5 -4,-8 -2,-4 -3,-4 -5,-8 -1,-3 -2,-7 -3,-10 -2,-4 -4,-3 -5,-7 -2,-5 -1,-5 -4,-9 -8,-13 -4,-11 -8,-17 -1,-2 -3,-4 -4,-7 -2,-5 -1,-5 -4,-9 -7,-11 -5,-12 -8,-18 -10,-15 -4,-9 -8,-17 -2,-3 -3,-3 -5,-7 -1,-3 -2,-6 -4,-9 -2,-4 -3,-2 -5,-7 -5,-16 -6,-11 -8,-17 -1,-3 -2,-8 -3,-12 0,-3 -1,-1 -3,-5 -1,-2 -2,-5 -3,-7 -2,-7 -5,-6 -7,-13 -3,-13 -2,-6 -6,-13 -3,-5 -4,-11 -8,-18l-14 -29c-2,-3 -3,-1 -4,-6l-12 -27c-6,-9 -2,1 -7,-13 -2,-3 -2,-3 -4,-6 -1,-2 -2,-4 -3,-7 -3,-9 -6,-7 -10,-19 -2,-7 0,-2 -4,-7 -3,-4 -10,-22 -12,-28 -1,-3 0,-1 -1,-3l-13 -22c-4,-8 1,-1 -7,-13 -4,-6 -2,-10 -7,-17 -5,-5 -4,-5 -5,-10 -2,-6 -5,-6 -7,-12 -1,-3 -2,-5 -3,-8l-7 -13c-1,-2 -1,-1 -2,-3l-5 -7c0,-1 -1,-6 -4,-10 -10,-14 -4,-11 -9,-20 -8,-11 0,-3 -10,-20l-19 -40c-2,-6 -5,-8 -6,-14 -5,-16 -8,-4 -6,-14 -4,-2 0,3 -4,-4 -5,-11 -1,-3 -6,-10 -2,-3 -1,-5 -8,-16 -2,-4 -19,-44 -22,-48 -5,-6 -5,-11 -8,-16l-9 -15c-3,-6 -5,-9 -6,-19 -6,-1 -6,-11 -11,-17 -4,-6 -3,-10 -6,-14 -4,-6 -3,0 -6,-10 -1,-7 -1,-8 -5,-12 -3,-4 -3,-6 -5,-11l-15 -25c-3,-5 -1,-1 -6,-10 -6,-12 -10,-15 -15,-24l-27 -36c-8,-3 -8,-7 -16,-14l-19 -18c-7,-6 -5,-3 -12,-8 -4,-4 -2,-4 -7,-7 -4,-2 -6,-3 -7,-7 -6,0 -11,-5 -20,-11 -4,-2 -3,-2 -5,-4l-27 -13c-7,-5 -4,-4 -14,-6 -7,-2 -8,-5 -14,-7 -5,-2 -11,-2 -16,-4 -14,-7 -17,-5 -32,-7 -7,-1 -11,-2 -17,-4 -55,-9 -93,11 -109,7z"/>
  </g>
 </g>
</svg>
