<?xml version="1.0" encoding="UTF-8"?>
<!DOCTYPE svg PUBLIC "-//W3C//DTD SVG 1.1//EN" "http://www.w3.org/Graphics/SVG/1.1/DTD/svg11.dtd">
<!-- Creator: CorelDRAW X7 -->
<svg xmlns="http://www.w3.org/2000/svg" xml:space="preserve" width="8.5in" height="11in" version="1.1" style="shape-rendering:geometricPrecision; text-rendering:geometricPrecision; image-rendering:optimizeQuality; fill-rule:evenodd; clip-rule:evenodd"
viewBox="0 0 8500 11000"
 xmlns:xlink="http://www.w3.org/1999/xlink">
 <defs>
  <style type="text/css">
   <![CDATA[
    .fil1 {fill:#00AFEF}
    .fil0 {fill:#33497C}
   ]]>
  </style>
 </defs>
 <g id="Layer_x0020_1">
  <metadata id="CorelCorpID_0Corel-Layer"/>
  <g id="_526828832">
   <path class="fil0" d="M3487 1848c319,234 409,505 268,-47 551,-29 849,400 263,736 -45,7 -76,16 -95,24 -18,10 -23,21 -14,33 746,-70 879,-605 515,-916 -172,-110 -360,-193 -634,-217 178,-316 159,-354 -130,-141l-267 157c-191,135 -180,131 94,371z"/>
   <path class="fil1" d="M3501 1816c319,234 409,504 268,-48 583,-30 882,451 154,793 746,-69 879,-605 515,-916 -172,-109 -360,-192 -634,-216 178,-317 159,-354 -130,-142l-267 158c-191,135 -181,130 94,371z"/>
  </g>
 </g>
</svg>
