<svg id="Capa_1" enable-background="new 0 0 512 512" height="512" viewBox="0 0 512 512" width="512" xmlns="http://www.w3.org/2000/svg"><g><g><g><path d="m256 504.5c-62.464 0-125.985-2.171-188.802-6.454l-7.415-.506c-10.237-.698-18.495-8.645-19.585-18.847l-.79-7.391c-9.422-88.182-9.422-177.606 0-265.788l.79-7.391c1.09-10.202 9.348-18.149 19.585-18.847l7.415-.506c62.824-4.283 126.346-6.455 188.802-6.455 62.457 0 125.979 2.172 188.802 6.455l7.415.506c10.237.698 18.495 8.645 19.585 18.847l.79 7.39c9.423 88.182 9.423 177.606 0 265.789l-.79 7.39c-1.09 10.202-9.348 18.149-19.585 18.847l-7.415.506c-62.816 4.284-126.337 6.455-188.802 6.455z" fill="#dfeaef"/><path d="m442.766 468.11c-62.197 4.253-124.832 6.389-186.773 6.389-61.923 0-124.558-2.136-186.755-6.389-2.83-26.489-4.801-53.051-5.897-79.631-2.446-59.951-.493-120.031 5.897-179.782 62.197-4.235 124.832-6.389 186.755-6.389 25.759 0 51.627.365 77.532 1.114 36.42 1.04 72.895 2.793 109.242 5.276 2.245 20.994 3.943 42.043 5.075 63.092 1.059 18.949 1.643 37.899 1.807 56.848.365 46.551-1.935 93.103-6.883 139.472z" fill="#6bbef6"/><path d="m447.038 418.637c-1.096 16.503-2.519 33.006-4.272 49.473-62.197 4.253-124.832 6.389-186.773 6.389-61.923 0-124.558-2.136-186.755-6.389-1.004-9.384-1.899-18.767-2.665-28.15-1.442-17.142-2.519-34.302-3.231-51.481h.018c59.951 0 109.132-103.656 176.514-74.501 67.381 29.136 108.767 83.83 209.739 14.586l.037.073c.236 30.012-.64 60.025-2.612 90z" fill="#86f1a7"/><path d="m447.038 418.637c-1.096 16.503-2.519 33.006-4.272 49.473-62.197 4.253-124.832 6.389-186.773 6.389-61.923 0-124.558-2.136-186.755-6.389-1.004-9.384-1.899-18.767-2.665-28.15-.001 0 199.698-21.323 380.465-21.323z" fill="#66b49d"/><g><circle cx="357.309" cy="272.885" fill="#f4dd45" r="43.895"/></g></g><path d="m334.852 101.188-66.1-89.336c-4.293-5.803-12.974-5.803-17.267 0l-66.1 89.336c-5.245 7.089-.185 17.128 8.634 17.128h13.833c5.932 0 10.74 4.809 10.74 10.74v89.677c0 5.932 4.809 10.74 10.74 10.74h61.573c5.932 0 10.74-4.809 10.74-10.74v-89.677c0-5.932 4.808-10.74 10.74-10.74h13.833c8.818 0 13.879-10.039 8.634-17.128z" fill="#617881"/></g><g><path d="m480.047 204.712-.789-7.389c-1.479-13.84-12.635-24.575-26.524-25.526l-7.424-.51c-45.073-3.07-90.842-5.056-136.17-5.939v-36.288c0-1.787 1.453-3.24 3.24-3.24h13.84c6.93 0 13.172-3.844 16.289-10.032 3.118-6.188 2.492-13.492-1.63-19.059l-32.01-43.26c-2.465-3.33-7.159-4.032-10.49-1.568-3.33 2.464-4.032 7.16-1.568 10.49l32.012 43.262c1.034 1.396.626 2.72.291 3.385-.335.666-1.156 1.781-2.894 1.781h-13.84c-10.058 0-18.24 8.183-18.24 18.24v89.67c0 1.787-1.453 3.24-3.239 3.24h-61.57c-1.787 0-3.24-1.454-3.24-3.24v-89.67c0-10.058-8.183-18.24-18.24-18.24h-13.83c-1.736 0-2.56-1.117-2.896-1.783s-.745-1.992.285-3.386l66.097-89.334c.849-1.145 2.001-1.316 2.613-1.316h.002c.608 0 1.757.171 2.6 1.311l14.41 19.48c2.463 3.33 7.161 4.032 10.489 1.569 3.33-2.463 4.033-7.16 1.569-10.49l-14.409-19.48c-3.472-4.693-8.812-7.387-14.651-7.39-.004 0-.007 0-.011 0-5.84 0-11.184 2.691-14.667 7.389l-66.103 89.343c-4.117 5.571-4.737 12.875-1.617 19.061 3.12 6.185 9.361 10.027 16.288 10.027h13.83c1.787 0 3.24 1.454 3.24 3.24v36.147c-48.063.788-96.6 2.821-144.404 6.08l-7.418.51c-13.891.951-25.046 11.686-26.526 25.525l-.79 7.391c-9.476 88.716-9.476 178.677.001 267.384l.789 7.39c1.479 13.846 12.635 24.585 26.524 25.536l7.424.51c62.976 4.291 126.669 6.467 189.31 6.467s126.334-2.176 189.313-6.468l7.418-.51c13.893-.951 25.048-11.69 26.525-25.535l.791-7.391c9.477-88.706 9.477-178.666 0-267.384zm-250.716 32.258h61.57c10.058 0 18.239-8.183 18.239-18.24v-8.401c8.223.162 16.323.359 24.166.588 34.373.981 68.875 2.609 102.658 4.842 1.914 18.868 3.388 37.823 4.388 56.45.949 16.949 1.534 34.556 1.75 52.386-33.847 22.598-62.404 32.038-89.595 29.688-25.146-2.177-47.176-14.35-70.497-27.237-12.37-6.835-25.162-13.904-39.164-19.958-42.419-18.344-78.403 10.817-110.149 36.547-21.243 17.217-41.431 33.567-62.145 36.768-1.886-54.822-.047-110.134 5.494-164.642 44.886-2.957 90.24-4.812 135.045-5.552v8.521c-.001 10.058 8.182 18.24 18.24 18.24zm210.651 174.175c-157.371.479-328.716 16.782-366.553 20.581-.936-12.1-1.693-24.209-2.265-36.26 25.458-3.29 48.564-22.013 70.978-40.178 31.2-25.287 60.669-49.168 94.751-34.433 13.336 5.767 25.804 12.657 37.862 19.32 27.109 14.98 53.374 29.499 85.855 29.496 23.169-.002 49.508-7.403 81.552-27.284-.083 22.86-.803 45.83-2.18 68.758zm25.15 59.357-.79 7.392c-.704 6.595-6.018 11.71-12.636 12.164l-7.416.51c-62.638 4.267-125.988 6.432-188.29 6.432-62.303 0-125.652-2.165-188.287-6.433l-7.422-.51c-6.616-.453-11.93-5.569-12.635-12.165l-.789-7.39c-9.363-87.649-9.363-176.537-.001-264.196l.79-7.39c.705-6.59 6.019-11.702 12.637-12.155l7.416-.51c47.464-3.236 95.656-5.256 143.381-6.042v14.997c-47.237.776-95.086 2.786-142.36 6.01-3.631.248-6.56 3.066-6.946 6.685-6.399 59.833-8.397 120.69-5.937 180.888 1.101 26.601 3.099 53.556 5.936 80.117.387 3.619 3.315 6.438 6.946 6.686 14.148.967 28.084 1.811 41.42 2.507.134.007.266.01.397.01 3.963 0 7.274-3.105 7.484-7.109.216-4.136-2.963-7.665-7.099-7.881-11.275-.589-22.982-1.284-34.887-2.07-.486-4.782-.935-9.576-1.365-14.375 36.967-3.716 207.489-19.98 364.3-20.528-.844 11.661-1.842 23.303-3.017 34.903-59.839 3.949-120.351 5.95-179.973 5.95-37.118 0-74.768-.778-111.9-2.313-4.157-.178-7.633 3.045-7.803 7.184-.172 4.138 3.045 7.632 7.184 7.803 37.338 1.543 75.195 2.326 112.52 2.326 62.052 0 125.065-2.156 187.291-6.408 3.631-.248 6.561-3.068 6.946-6.688 4.953-46.493 7.282-93.704 6.923-140.332-.175-19.474-.788-38.72-1.821-57.185-1.124-20.934-2.84-42.293-5.102-63.484-.387-3.619-3.314-6.438-6.945-6.687-35.982-2.465-72.84-4.247-109.544-5.294-7.98-.233-16.227-.432-24.599-.596v-14.975c44.991.88 90.415 2.854 135.146 5.901l7.422.51c6.616.453 11.93 5.565 12.635 12.155l.789 7.389c9.365 87.661 9.365 176.549.001 264.197z"/><path d="m357.309 324.28c28.34 0 51.396-23.056 51.396-51.396s-23.056-51.396-51.396-51.396-51.396 23.056-51.396 51.396 23.056 51.396 51.396 51.396zm0-87.791c20.068 0 36.396 16.327 36.396 36.396s-16.327 36.396-36.396 36.396-36.396-16.327-36.396-36.396 16.328-36.396 36.396-36.396z"/></g></g></svg>