<?xml version="1.0" encoding="UTF-8"?>
<!DOCTYPE svg PUBLIC "-//W3C//DTD SVG 1.1//EN" "http://www.w3.org/Graphics/SVG/1.1/DTD/svg11.dtd">
<!-- Creator: CorelDRAW X7 -->
<svg xmlns="http://www.w3.org/2000/svg" xml:space="preserve" width="8.5in" height="11in" version="1.1" style="shape-rendering:geometricPrecision; text-rendering:geometricPrecision; image-rendering:optimizeQuality; fill-rule:evenodd; clip-rule:evenodd"
viewBox="0 0 8500 11000"
 xmlns:xlink="http://www.w3.org/1999/xlink">
 <defs>
  <style type="text/css">
   <![CDATA[
    .fil0 {fill:#373435}
    .fil1 {fill:#ED3237}
   ]]>
  </style>
 </defs>
 <g id="Layer_x0020_1">
  <metadata id="CorelCorpID_0Corel-Layer"/>
  <g id="_526846880">
   <path class="fil0" d="M3713 2251c-4,8 -33,16 -44,27 -5,5 -7,5 -14,8 -1,6 -8,6 -11,11 -5,5 0,1 -6,6 -3,2 -4,1 -5,5 -4,8 -1,0 -10,13l-8 9c-4,3 1,-1 -4,2 -2,2 -5,5 -7,8 -3,6 -1,6 -6,11l-20 31c-4,7 -4,3 -7,10l-12 20c-1,10 -3,4 -8,14l-16 24c-8,9 -3,4 -8,12 -19,31 -22,29 -51,29 -27,0 -53,0 -80,0 -27,0 -53,4 -78,4l-2 -1 -13 7c-5,1 -11,3 -15,3 -16,2 -45,19 -55,22 -10,3 -5,2 -11,7 -4,3 -7,2 -12,6 -26,19 -38,26 -62,51 -9,9 -13,17 -19,19 -2,3 -3,2 -5,4 -12,12 -16,28 -24,37 -8,7 -5,11 -10,19 -2,5 -2,3 -4,7 -1,3 -1,5 -2,8 -3,10 -11,12 -10,28 0,14 -6,17 -8,28l-5 63c-2,40 -6,48 -1,96 2,20 1,45 2,66 1,87 3,177 3,265 0,69 1,199 6,264 5,50 1,141 4,199 2,35 10,26 11,56 -1,10 2,8 5,14 3,4 3,12 5,16 3,6 5,6 8,13 3,9 12,27 18,33 5,6 12,19 19,25l15 15c3,3 2,4 5,7 2,2 3,2 6,5 4,4 16,16 22,19 9,4 5,4 11,9 1,1 25,13 37,22l2 2c0,0 1,0 1,1 7,-1 5,0 9,2 3,2 5,3 9,5 6,2 12,3 19,5 10,5 26,9 38,9 15,2 9,4 40,6 42,3 211,-6 266,-8 14,-1 33,-3 41,5 -2,4 -2,3 -4,6 -2,4 -2,4 -4,7l-61 76c-4,8 -3,10 -12,13 -1,7 -7,7 -8,11 -2,12 -18,28 -22,36 -3,5 -3,6 -7,11l-14 23c0,8 3,8 6,12 5,5 4,6 9,11 8,3 2,2 8,8 13,11 24,22 44,5 4,-4 5,-3 10,-5 7,-5 8,-11 21,-13 1,0 14,-9 16,-10 11,-10 11,-7 16,-12 13,-12 8,-3 16,-12 3,-2 5,-4 8,-6 4,-3 4,-4 10,-4l-1 -4c7,-2 24,-17 32,-23l44 -36c3,-2 5,-3 8,-6 13,-15 7,-7 22,-20 3,-3 3,-5 6,-7 3,-3 5,-2 7,-6 3,-7 1,-3 8,-9l26 -24c3,-3 14,-14 16,-18l13 -23c1,-28 3,-45 -13,-66l-41 -41c-5,-5 -4,-2 -8,-6l-4 -5c-2,-1 -2,-1 -3,-2 -4,-3 -11,-10 -12,-15 -8,-1 -2,1 -8,-5 -3,-3 -4,-2 -7,-5 -6,-8 -6,-5 -13,-12l-28 -21 -1 -6 -1 -1c-10,-2 -10,-5 -24,-16 -5,-3 -8,-5 -12,-8 -5,-4 -2,-5 -10,-8l-40 -29c-5,-3 -7,-2 -11,-6l-20 -14c-4,-3 -8,-3 -12,-6l-20 -15c-15,-11 -32,10 -43,21 -22,23 -11,24 -6,32l31 46c4,6 2,6 8,12l16 24c5,8 5,4 9,10l25 35c48,59 69,50 -94,48l-166 -5c-10,-2 -17,-3 -29,-4 -14,-2 -14,-6 -25,-9 -4,-2 -9,-2 -13,-4 -5,-2 -6,-4 -10,-7 -5,-2 -8,-1 -12,-5l-29 -21c-10,-10 -29,-26 -32,-39 -4,-5 -4,-1 -7,-10 -8,-20 -7,-7 -12,-25 -2,-7 -4,-8 -7,-14l-11 -44c-2,-23 1,-146 2,-170 4,-78 6,-141 6,-220 0,-25 -1,-53 1,-77 3,-46 -3,-103 1,-149 2,-23 0,-50 1,-74 3,-38 0,-129 3,-151 2,-16 4,-75 9,-85 2,-6 3,-5 5,-13 2,-6 2,-8 6,-12l15 -24c1,-2 2,-4 3,-6l14 -16c10,-9 4,-7 9,-9l6 -6c13,-13 20,-15 31,-20 5,-3 6,-6 12,-8 8,-2 8,-1 15,-4 17,-9 32,-7 51,-10 25,-3 53,1 77,2 17,0 106,3 120,-2 16,-5 36,-19 45,-34 4,-8 5,-4 8,-12l24 -36c3,-6 5,-6 8,-12 2,-3 2,-4 4,-7 2,-3 2,-2 4,-5 4,-6 3,-8 7,-13l17 -23c2,-6 4,-9 9,-11l1 -8c3,-4 7,-6 10,-14 3,-6 20,-28 20,-28 11,-20 3,-5 13,-18 3,-4 3,-6 10,-7 5,0 10,-7 18,-10 9,-3 14,-6 23,-9 12,-4 44,-2 60,-2l243 0c92,0 50,1 83,10 15,4 9,10 17,11 4,1 4,1 8,5 3,3 4,3 6,5 6,6 17,23 19,28 5,10 2,5 9,13l27 41c6,7 5,5 9,13 4,6 6,7 10,13l19 28c12,20 5,3 13,20l19 27c8,14 8,8 12,16 2,3 1,0 2,3 7,0 3,-1 7,3 3,3 1,2 6,5 4,2 8,1 13,4 7,5 5,5 14,6 41,4 160,-3 211,1 13,1 16,6 28,9 17,5 10,0 21,8l30 18c9,8 32,29 37,39 2,3 3,5 4,7 12,16 5,8 11,17 12,19 5,15 11,28 9,16 8,42 8,66 0,26 1,50 2,76 0,13 1,25 1,37 1,13 3,22 3,35 0,51 1,100 2,151l2 305c-3,18 5,180 5,215 0,19 2,36 -4,51 -4,10 -1,20 -8,34 -2,2 -3,4 -4,8 -6,16 2,4 -9,19 -5,6 -2,10 -10,18l-12 15c-4,5 -7,12 -14,13 -1,6 -14,14 -21,19 -31,25 -21,13 -38,23 -12,6 -34,15 -47,16 -11,0 -29,-1 -39,1 -11,2 -26,3 -38,3 -26,1 -53,2 -81,2 -53,1 -105,4 -159,5 -16,0 -85,0 -98,3 -5,1 -11,5 -15,7 -20,8 -4,8 -20,20 -1,8 -2,13 2,18 2,4 7,11 10,13l14 9c14,6 161,3 198,8 28,3 60,0 88,3 39,4 138,4 174,-5 13,-3 24,-2 36,-8 15,-8 15,-3 33,-14 6,-4 8,-2 14,-7 7,-7 6,-4 14,-8 4,-2 4,-4 7,-5 3,-2 5,-2 8,-4 6,-5 5,-8 16,-10l-2 1c4,-9 19,-21 23,-22 0,-5 -1,-1 2,-6l19 -20c3,-3 4,-6 7,-10 2,-3 4,-4 7,-8 3,-5 2,-5 6,-9 9,-8 3,-15 14,-19 1,-4 3,-9 4,-12 2,-4 5,-6 7,-10 3,-4 2,-8 4,-13 2,-7 5,-6 6,-11 0,-6 3,-26 5,-31 3,-10 6,-13 7,-25 3,-33 3,-154 4,-194 1,-41 5,-83 6,-125 0,-43 1,-86 1,-129 1,-88 1,-175 2,-262 1,-57 3,-140 2,-196 -1,-19 -4,-41 -6,-61 0,-7 -4,-11 -6,-16 -2,-5 -1,-13 -4,-19 -13,-24 -10,-28 -33,-61 -3,-6 -5,-8 -9,-14 -3,-6 -7,-8 -9,-14 -8,-3 -9,-7 -14,-13 -4,-4 -8,-7 -11,-13 -1,-4 -12,-12 -16,-15l-25 -22c-6,-3 -6,-1 -12,-6 -5,-4 -3,-3 -10,-6 -11,-4 -3,-1 -10,-6 -4,-4 -5,-2 -11,-4l-23 -11c-16,-3 -7,-7 -22,-10 -24,-3 -25,-9 -39,-10 -46,-6 -111,-4 -160,-4 -28,0 -32,-3 -49,-33 0,-1 -2,-3 -3,-5 -3,-5 -2,0 -2,-7 -6,-1 -2,2 -6,-5 -1,-2 -2,-5 -4,-7 -3,-4 -6,-7 -6,-14 -2,0 -2,2 -6,-3 -2,-3 -3,-3 -1,-8 -5,-1 -2,1 -7,-4 -5,-7 -7,-14 -10,-19l-25 -34c-4,-7 2,-3 -15,-24 -4,-5 -5,-2 -8,-12l2 1 -32 -27c-3,-4 0,-3 -5,-6 -4,-2 -3,0 -7,-3 -4,-3 -2,-3 -6,-6 -4,-3 -9,-4 -15,-8l-28 -15c-6,-2 -9,-3 -15,-5 -1,-1 -1,-1 -2,-1l-7 -4c-8,-3 -61,-8 -68,-8l-265 0c-47,0 -84,-3 -127,7 -12,3 -17,11 -31,11z"/>
   <path class="fil1" d="M3667 2988c0,5 -2,9 -6,14l-15 25c-6,17 -6,6 -13,25 -2,6 -3,8 -6,12 -3,6 -2,10 -5,16 -1,5 -3,8 -5,12 -4,9 -5,23 -8,32 -4,13 -5,14 -6,32 -1,13 -7,65 2,72 5,5 25,6 35,5 12,-1 22,-1 26,-13 3,-11 6,-19 7,-31 3,-17 8,-16 11,-28 1,-8 0,-9 5,-15 5,-6 3,-4 6,-13l31 -45c3,-6 11,-20 19,-19 -1,-7 3,-9 10,-15l39 -33c3,-3 7,-3 11,-5 4,-3 4,-5 8,-7 8,-4 5,0 11,-6 4,-3 6,-4 10,-5 7,-2 7,-2 12,-5 18,-10 21,-4 35,-13 7,-4 74,-11 85,-11 14,0 37,5 57,7 16,2 12,6 23,9 13,5 5,-1 23,9 13,6 8,-1 22,10 7,5 15,4 18,13 8,0 9,2 13,6 4,3 7,5 11,8l38 36 23 32c3,6 4,7 7,11 3,5 3,8 6,13 3,4 5,5 7,11l11 27c1,6 6,27 6,32 0,5 3,21 3,29 1,17 2,65 -4,79 -7,19 -3,10 -5,27 -1,9 -2,5 -5,11 -5,7 -5,17 -9,24l-6 11c-11,28 -5,10 -12,22 -2,5 -2,6 -5,9 -2,10 -3,4 -5,11 0,7 -17,24 -22,30l-16 17c-7,5 -23,23 -30,23 -2,2 -7,8 -12,10 -3,2 -4,2 -7,4 -3,1 -4,4 -7,5 -5,4 -9,4 -15,8l-32 14c-6,2 -14,2 -19,5 -7,3 -5,4 -16,6 -7,1 -15,3 -23,2 -4,1 -4,4 -7,9 -4,5 -4,5 -5,13 0,10 0,26 1,34 18,6 -4,13 36,13 40,0 33,-1 63,-8 7,-1 15,-2 22,-3 14,-2 25,-13 39,-9 0,-1 0,-1 0,-1 1,0 1,-1 1,-1 19,-14 14,-4 30,-15 10,-7 7,1 21,-11 6,-5 9,-2 16,-9 3,-3 1,-1 4,-3 5,-4 23,-13 27,-18l60 -58 34 -48c3,-5 3,-8 5,-12 13,-19 5,-12 11,-22 12,-20 3,-6 9,-23 5,-11 6,-3 9,-23 3,-16 7,-7 9,-25 0,-4 1,-11 4,-14 -3,-9 4,-27 5,-37 1,-12 2,-27 2,-39 0,-14 0,-30 -2,-42l-6 -35c-1,-8 -1,-13 -3,-19 -4,-14 -4,0 -10,-32l-11 -31c-2,-5 -6,-7 -8,-13 -2,-7 -2,-10 -6,-16l-16 -26c-3,-7 -5,-7 -9,-12 -4,-6 -2,-8 -8,-14 -3,-3 -2,-2 -5,-6l-24 -28c-7,-7 -47,-45 -56,-50 -8,-4 -6,-4 -12,-8l-26 -17c-20,-12 -18,-6 -28,-14 -8,-5 -9,-2 -17,-5 -8,-3 -1,-5 -13,-8 -5,-2 -13,-3 -18,-4 -9,-2 -5,-4 -14,-6 -12,-3 -24,-4 -36,-7 -27,-8 -90,-8 -118,-5 -14,2 -23,6 -35,8 -23,5 -7,-3 -32,9 -5,3 -13,3 -18,4 -8,2 -7,5 -14,8 -6,2 -12,2 -17,4 -5,2 -3,2 -8,4 -2,2 -4,2 -6,3l-28 15c-2,2 -3,3 -5,5 -3,2 -5,3 -8,4 -4,3 -4,5 -10,9l-56 50c-4,5 -15,16 -20,23 -2,4 -3,9 -10,10z"/>
  </g>
 </g>
</svg>
