<svg id="Layer_1" height="512" viewBox="0 0 512 512" width="512" xmlns="http://www.w3.org/2000/svg" xmlns:xlink="http://www.w3.org/1999/xlink" data-name="Layer 1"><linearGradient id="linear-gradient" gradientUnits="userSpaceOnUse" x1="255.914" x2="255.914" y1="25.973" y2="486.135"><stop offset="0" stop-color="#00efd1"/><stop offset="1" stop-color="#00acea"/></linearGradient><linearGradient id="linear-gradient-2" x1="294.5" x2="294.5" xlink:href="#linear-gradient" y1="25.973" y2="486.135"/><linearGradient id="linear-gradient-3" x1="290" x2="290" xlink:href="#linear-gradient" y1="25.973" y2="486.135"/><path d="m443.233 20h-298-.048-.049-30.787c-28.443 0-51.349 23.513-51.349 51.955v366.217c0 .168-.11.334-.1.5-.012.457-.077.917-.077 1.377a51.616 51.616 0 0 0 51.553 51.582h304.594a6.023 6.023 0 0 0 6.026-6v-85.631h18.233a5.424 5.424 0 0 0 5.771-5.535v-368.092c0-3.313-2.453-6.373-5.767-6.373zm-368.233 51.955c0-21.826 17.523-39.955 39.349-39.955h24.651v356h-24.649a50.7 50.7 0 0 0 -39.351 19.009zm338 407.672h-298.608a39.815 39.815 0 0 1 -.041-79.627h298.649zm24-91.627h-286v-356h286z" fill="url(#linear-gradient)"/><path d="m403 80a6 6 0 0 0 -6-6h-205a6 6 0 0 0 -6 6v253a6 6 0 0 0 6 6h205a6 6 0 0 0 6-6zm-205 6h193v241h-193z" fill="url(#linear-gradient-2)"/><path d="m336.64 181.666a27.192 27.192 0 1 0 -26-19.2l-46.323 22.228a27.2 27.2 0 1 0 -1.868 36.654l47.734 21.891a27.251 27.251 0 1 0 5.3-10.771l-46.512-21.331a27.161 27.161 0 0 0 .768-15.734l46.912-22.51a27.126 27.126 0 0 0 19.989 8.773zm0 52.668a15.2 15.2 0 1 1 -15.2 15.2 15.213 15.213 0 0 1 15.2-15.2zm-93.28-17.134a15.2 15.2 0 1 1 15.2-15.2 15.213 15.213 0 0 1 -15.2 15.2zm93.28-77.923a15.2 15.2 0 1 1 -15.2 15.2 15.214 15.214 0 0 1 15.2-15.204z" fill="url(#linear-gradient-3)"/></svg>