<svg id="Layer_1" enable-background="new 0 0 512.002 512.002" height="512" viewBox="0 0 512.002 512.002" width="512" xmlns="http://www.w3.org/2000/svg"><g><g><path d="m418.044 342.257c16.682 0 30.253-13.572 30.253-30.253s-13.571-30.253-30.253-30.253-30.254 13.572-30.254 30.253c0 1.281.089 2.54.245 3.779l-33.67 16.775c-6.203-6.513-14.947-10.586-24.63-10.586-18.764 0-34.029 15.266-34.029 34.029s15.266 34.029 34.029 34.029c9.683 0 18.427-4.072 24.63-10.585l33.67 16.775c-.155 1.239-.245 2.499-.245 3.779 0 16.682 13.572 30.253 30.254 30.253s30.253-13.571 30.253-30.253-13.571-30.253-30.253-30.253c-8.189 0-15.625 3.276-21.077 8.58l-33.663-16.772c.298-1.808.46-3.662.46-5.553s-.162-3.745-.46-5.553l33.663-16.772c5.452 5.305 12.887 8.581 21.077 8.581zm0 47.489c5.653 0 10.253 4.6 10.253 10.253s-4.6 10.253-10.253 10.253c-5.654 0-10.254-4.6-10.254-10.253s4.6-10.253 10.254-10.253zm-88.31-19.715c-7.735 0-14.029-6.293-14.029-14.029s6.294-14.029 14.029-14.029 14.029 6.293 14.029 14.029-6.293 14.029-14.029 14.029zm88.31-68.281c5.653 0 10.253 4.6 10.253 10.253s-4.6 10.253-10.253 10.253c-5.654 0-10.254-4.6-10.254-10.253s4.6-10.253 10.254-10.253z"/><path d="m452.004 246.5v-130.498c0-16.542-13.458-30-30-30h-230.01v-30.002c0-16.542-13.458-30-30-30h-131.994c-16.542 0-30 13.458-30 30v320.003c0 16.542 13.458 30 30 30h232.007c19.631 46.935 66.021 79.999 119.994 79.999 71.683 0 130.001-58.318 130.001-130 0-45.929-23.941-86.37-59.998-109.502zm-422.004 139.503c-5.514 0-10-4.486-10-10v-10.001h54.996c5.522 0 10-4.477 10-10s-4.478-10-10-10h-54.996v-290.002c0-5.514 4.486-10 10-10h131.994c5.514 0 10 4.486 10 10v40.002c0 5.523 4.478 10 10 10h240.01c5.514 0 10 4.486 10 10v120.006c-15.401-6.442-32.293-10.007-50.003-10.007-71.683 0-130 58.318-130 130 0 10.323 1.216 20.367 3.501 30.001h-225.502zm352.001 79.999c-60.654 0-110-49.346-110-110s49.346-110 110-110 110.001 49.346 110.001 110-49.347 110-110.001 110z"/><path d="m119.993 346.002c-5.522 0-10 4.477-10 10s4.478 10 10 10h.007c5.522 0 9.997-4.477 9.997-10s-4.481-10-10.004-10z"/></g></g></svg>