<svg id="Layer_1" enable-background="new 0 0 512.002 512.002" height="512" viewBox="0 0 512.002 512.002" width="512" xmlns="http://www.w3.org/2000/svg"><g><g clip-rule="evenodd" fill-rule="evenodd"><path d="m30 396.003h238.83c-4.422-12.512-6.829-25.975-6.829-40.001 0-66.274 53.726-120 120-120 21.858 0 42.351 5.844 60.002 16.055v-136.055c0-10.998-9-20-20-20h-240.009v-40.002c0-10.996-9-20-20-20h-131.994c-11 0-20 9-20 20v320.003c0 11 9.002 20 20 20z" fill="#ff764e"/><path d="m382.001 236.001c-66.274 0-120 53.726-120 120 0 14.026 2.406 27.49 6.829 40.001 16.474 46.607 60.923 79.999 113.171 79.999 66.274 0 120-53.726 120-120 0-44.416-24.131-83.196-59.998-103.945-17.65-10.211-38.144-16.055-60.002-16.055zm17.911 154.965c3.32-6.652 10.193-11.22 18.132-11.22 11.186 0 20.253 9.068 20.253 20.253 0 11.186-9.068 20.253-20.253 20.253s-20.253-9.067-20.253-20.253c-.001-3.245.763-6.313 2.121-9.033zm0-69.929c-1.358-2.72-2.121-5.788-2.121-9.034 0-11.185 9.068-20.253 20.253-20.253 11.186 0 20.253 9.068 20.253 20.253 0 11.186-9.068 20.253-20.253 20.253-7.94 0-14.812-4.568-18.132-11.219zm-70.177 10.935c9.419 0 17.573 5.42 21.512 13.311 1.611 3.227 2.517 6.867 2.517 10.718s-.906 7.491-2.517 10.717c-3.939 7.891-12.093 13.311-21.512 13.311-13.271 0-24.029-10.758-24.029-24.029-.001-13.27 10.757-24.028 24.029-24.028z" fill="#88df8e"/><g fill="#fff"><path d="m329.735 331.972c-13.271 0-24.029 10.758-24.029 24.029s10.758 24.029 24.029 24.029c9.419 0 17.573-5.42 21.512-13.311 1.611-3.227 2.517-6.866 2.517-10.717s-.906-7.491-2.517-10.718c-3.939-7.892-12.093-13.312-21.512-13.312z"/><path d="m397.79 312.003c0 3.246.764 6.314 2.121 9.034 3.32 6.651 10.193 11.219 18.132 11.219 11.186 0 20.253-9.067 20.253-20.253 0-11.185-9.068-20.253-20.253-20.253s-20.253 9.068-20.253 20.253z"/><path d="m418.044 379.747c-7.939 0-14.812 4.568-18.132 11.22-1.358 2.719-2.121 5.787-2.121 9.034 0 11.186 9.068 20.253 20.253 20.253 11.186 0 20.253-9.067 20.253-20.253 0-11.187-9.068-20.254-20.253-20.254z"/></g></g><g><path d="m418.044 342.257c16.682 0 30.253-13.572 30.253-30.253s-13.571-30.253-30.253-30.253-30.254 13.572-30.254 30.253c0 1.281.089 2.54.245 3.779l-33.67 16.775c-6.203-6.513-14.947-10.586-24.63-10.586-18.764 0-34.029 15.266-34.029 34.029s15.266 34.029 34.029 34.029c9.683 0 18.427-4.072 24.63-10.585l33.67 16.775c-.155 1.239-.245 2.499-.245 3.779 0 16.682 13.572 30.253 30.254 30.253s30.253-13.571 30.253-30.253-13.571-30.253-30.253-30.253c-8.189 0-15.625 3.276-21.077 8.58l-33.663-16.772c.298-1.808.46-3.662.46-5.553s-.162-3.745-.46-5.553l33.663-16.772c5.452 5.305 12.887 8.581 21.077 8.581zm0 47.489c5.653 0 10.253 4.6 10.253 10.253s-4.6 10.253-10.253 10.253c-5.654 0-10.254-4.6-10.254-10.253s4.6-10.253 10.254-10.253zm-88.31-19.715c-7.735 0-14.029-6.293-14.029-14.029s6.294-14.029 14.029-14.029 14.029 6.293 14.029 14.029-6.293 14.029-14.029 14.029zm88.31-68.281c5.653 0 10.253 4.6 10.253 10.253s-4.6 10.253-10.253 10.253c-5.654 0-10.254-4.6-10.254-10.253s4.6-10.253 10.254-10.253z"/><path d="m452.004 246.5v-130.498c0-16.542-13.458-30-30-30h-230.01v-30.002c0-16.542-13.458-30-30-30h-131.994c-16.542 0-30 13.458-30 30v320.003c0 16.542 13.458 30 30 30h232.007c19.631 46.935 66.021 79.999 119.994 79.999 71.683 0 130.001-58.318 130.001-130 0-45.929-23.941-86.37-59.998-109.502zm-422.004 139.503c-5.514 0-10-4.486-10-10v-10.001h54.996c5.522 0 10-4.477 10-10s-4.478-10-10-10h-54.996v-290.002c0-5.514 4.486-10 10-10h131.994c5.514 0 10 4.486 10 10v40.002c0 5.523 4.478 10 10 10h240.01c5.514 0 10 4.486 10 10v120.006c-15.401-6.442-32.293-10.007-50.003-10.007-71.683 0-130 58.318-130 130 0 10.323 1.216 20.367 3.501 30.001h-225.502zm352.001 79.999c-60.654 0-110-49.346-110-110s49.346-110 110-110 110.001 49.346 110.001 110-49.347 110-110.001 110z"/><path d="m119.993 346.002c-5.522 0-10 4.477-10 10s4.478 10 10 10h.007c5.522 0 9.997-4.477 9.997-10s-4.481-10-10.004-10z"/></g></g></svg>