<svg height="512" viewBox="0 0 64 64" width="512" xmlns="http://www.w3.org/2000/svg"><g id="Book-Study-Student-Share-Education"><path d="m61 58.07v2.93h-12v-2.93a1.981 1.981 0 0 1 .89-1.66l3.96-2.64a2.99 2.99 0 0 0 2.3 0l3.96 2.64a1.981 1.981 0 0 1 .89 1.66z" fill="#3d9ae2"/><path d="m61 16.07v2.93h-12v-2.93a1.981 1.981 0 0 1 .89-1.66l3.96-2.64a2.99 2.99 0 0 0 2.3 0l3.96 2.64a1.981 1.981 0 0 1 .89 1.66z" fill="#3d9ae2"/><path d="m58 50v1a2.993 2.993 0 0 1 -5 2.23 1.2 1.2 0 0 1 -.12-.11 2.993 2.993 0 0 1 -.88-2.12v-1h1.17a2.006 2.006 0 0 0 1.42-.59l1.41-1.41z" fill="#ffc477"/><path d="m58 48v2l-2-2-1.41 1.41a2.006 2.006 0 0 1 -1.42.59h-1.17v-2a3 3 0 0 1 6 0z" fill="#57565c"/><path d="m58 8v1a2.993 2.993 0 0 1 -5 2.23 1.2 1.2 0 0 1 -.12-.11 2.993 2.993 0 0 1 -.88-2.12v-1h1.17a2.006 2.006 0 0 0 1.42-.59l1.41-1.41z" fill="#ffc477"/><path d="m58 6v2l-2-2-1.41 1.41a2.006 2.006 0 0 1 -1.42.59h-1.17v-2a3 3 0 0 1 6 0z" fill="#57565c"/><path d="m48 26v16h-4v-4-12z" fill="#8b5e3c"/><path d="m44 38v4h-12a3.995 3.995 0 0 1 4-4z" fill="#acabb1"/><path d="m44 26v12h-8a3.995 3.995 0 0 0 -4 4v-16a4 4 0 0 1 4-4h8z" fill="#f1f2f2"/><path d="m32 26v16a3.995 3.995 0 0 0 -4-4h-8v-16h8a4 4 0 0 1 4 4z" fill="#e6e7e8"/><path d="m32 42h-12v-4h8a3.995 3.995 0 0 1 4 4z" fill="#acabb1"/><path d="m20 38v4h-4v-16h4z" fill="#8b5e3c"/><path d="m15 58.07v2.93h-12v-2.93a1.981 1.981 0 0 1 .89-1.66l3.96-2.64a2.99 2.99 0 0 0 2.3 0l3.96 2.64a1.981 1.981 0 0 1 .89 1.66z" fill="#3d9ae2"/><path d="m15 16.07v2.93h-12v-2.93a1.981 1.981 0 0 1 .89-1.66l3.96-2.64a2.99 2.99 0 0 0 2.3 0l3.96 2.64a1.981 1.981 0 0 1 .89 1.66z" fill="#3d9ae2"/><path d="m12 50v1a3 3 0 0 1 -4.15 2.77 2.921 2.921 0 0 1 -.85-.54 1.2 1.2 0 0 1 -.12-.11 2.993 2.993 0 0 1 -.88-2.12v-1h1.17a2.006 2.006 0 0 0 1.42-.59l1.41-1.41z" fill="#ffc477"/><path d="m12 48v2l-2-2-1.41 1.41a2.006 2.006 0 0 1 -1.42.59h-1.17v-2a3 3 0 0 1 6 0z" fill="#57565c"/><path d="m12 8v1a3 3 0 0 1 -4.15 2.77 2.921 2.921 0 0 1 -.85-.54 1.2 1.2 0 0 1 -.12-.11 2.993 2.993 0 0 1 -.88-2.12v-1h1.17a2.006 2.006 0 0 0 1.42-.59l1.41-1.41z" fill="#ffc477"/><path d="m12 6v2l-2-2-1.41 1.41a2.006 2.006 0 0 1 -1.42.59h-1.17v-2a3 3 0 0 1 6 0z" fill="#57565c"/><path d="m23 25h6v2h-6z" fill="#bcbec0"/><path d="m23 29h6v2h-6z" fill="#bcbec0"/><path d="m23 33h6v2h-6z" fill="#bcbec0"/><path d="m35 25h6v2h-6z" fill="#bcbec0"/><path d="m35 29h6v2h-6z" fill="#bcbec0"/><path d="m35 33h6v2h-6z" fill="#bcbec0"/><g fill="#ff9811"><path d="m39 19h-2v-3a1 1 0 0 1 .293-.707l7-7 1.414 1.414-6.707 6.707z"/><path d="m27 19h-2v-2.586l-6.707-6.707 1.414-1.414 7 7a1 1 0 0 1 .293.707z"/><path d="m44.293 55.707-7-7a1 1 0 0 1 -.293-.707v-3h2v2.586l6.707 6.707z"/><path d="m19.707 55.707-1.414-1.414 6.707-6.707v-2.586h2v3a1 1 0 0 1 -.293.707z"/><path d="m51 31h2v2h-2z"/><path d="m51 27h2v2h-2z"/><path d="m51 35h2v2h-2z"/><path d="m11 31h2v2h-2z"/><path d="m11 27h2v2h-2z"/><path d="m11 35h2v2h-2z"/></g></g></svg>