<?xml version="1.0" encoding="iso-8859-1"?>
<!-- Generator: Adobe Illustrator 19.0.0, SVG Export Plug-In . SVG Version: 6.00 Build 0)  -->
<svg version="1.1" id="Capa_1" xmlns="http://www.w3.org/2000/svg" xmlns:xlink="http://www.w3.org/1999/xlink" x="0px" y="0px"
	 viewBox="0 0 512 512" style="enable-background:new 0 0 512 512;" xml:space="preserve">
<g>
	<g>
		<path d="M136,311.036L0,288.557v200.407l136,22.479l136-22.479V288.557L136,311.036z M121,478.557l-91-15.041V323.922l91,15.042
			V478.557z M242,463.515l-91,15.041V338.964l91-15.042V463.515z"/>
	</g>
</g>
<g>
	<g>
		<path d="M376,23.036L240,0.557v200.407l136,22.479l136-22.479V0.557L376,23.036z M361,190.557l-91-15.041V35.922l91,15.042
			V190.557z M482,175.516l-91,15.041V50.964l91-15.042V175.516z"/>
	</g>
</g>
<g>
	<g>
		<path d="M214.434,96.243l-45.542-45.564v30.677c-44.486,1.514-86.069,19.52-117.662,51.113C18.194,165.505,0,209.461,0,256.24h30
			c0-77.907,61.761-141.649,138.892-144.863v30.419L214.434,96.243z"/>
	</g>
</g>
<g>
	<g>
		<path d="M482,256.24c0,77.906-61.761,141.648-138.892,144.862v-30.419l-45.542,45.553l45.542,45.564v-30.677
			c44.486-1.514,86.069-19.52,117.662-51.113C493.807,346.975,512,303.019,512,256.24H482z"/>
	</g>
</g>
<g>
</g>
<g>
</g>
<g>
</g>
<g>
</g>
<g>
</g>
<g>
</g>
<g>
</g>
<g>
</g>
<g>
</g>
<g>
</g>
<g>
</g>
<g>
</g>
<g>
</g>
<g>
</g>
<g>
</g>
</svg>
